<svg width="2840" height="1076" viewBox="0 0 2840 1076" fill="none" xmlns="http://www.w3.org/2000/svg">
<g clip-path="url(#clip0)">
<path fill-rule="evenodd" clip-rule="evenodd" d="M2940.52 -2954.26C2979.57 -2994.27 3049.92 -2999.04 3095.57 -2964.78L4743.88 -1727.68C4790.63 -1692.6 4792.17 -1631.19 4747.23 -1594.07L1573.66 1027.75C1553.37 1044.52 1526.15 1053.91 1497.85 1053.91L-742.772 1053.91C-833.93 1053.91 -883.531 964.278 -825.361 904.67L2940.52 -2954.26Z" fill="#FFB800"/>
<g filter="url(#filter0_d)">
<path fill-rule="evenodd" clip-rule="evenodd" d="M1343.71 -1156.44C1383.05 -1172.53 1429.56 -1167.25 1461.77 -1143.04L2680.56 -226.488C2724.14 -193.718 2728.19 -137.02 2689.68 -98.9221L1574.34 1004.43C1551.43 1027.09 1517.17 1039.13 1482.39 1036.74L-348.856 910.893C-411.469 906.591 -455.618 857.96 -444.673 805.35L-174.76 -492.075C-168.64 -521.489 -146.026 -546.764 -114.158 -559.806L1343.71 -1156.44Z" fill="#FEFEFF"/>
</g>
</g>
<defs>
<filter id="filter0_d" x="-495.34" y="-1212.66" width="3260.44" height="2300.7" filterUnits="userSpaceOnUse" color-interpolation-filters="sRGB">
<feFlood flood-opacity="0" result="BackgroundImageFix"/>
<feColorMatrix in="SourceAlpha" type="matrix" values="0 0 0 0 0 0 0 0 0 0 0 0 0 0 0 0 0 0 127 0"/>
<feOffset dy="2"/>
<feGaussianBlur stdDeviation="24.5"/>
<feColorMatrix type="matrix" values="0 0 0 0 0.0901961 0 0 0 0 0.501961 0 0 0 0 0.878431 0 0 0 0.54 0"/>
<feBlend mode="normal" in2="BackgroundImageFix" result="effect1_dropShadow"/>
<feBlend mode="normal" in="SourceGraphic" in2="effect1_dropShadow" result="shape"/>
</filter>
<clipPath id="clip0">
<rect width="2840" height="1076" fill="white"/>
</clipPath>
</defs>
</svg>
