<svg width="46" height="55" viewBox="0 0 46 55" fill="none" xmlns="http://www.w3.org/2000/svg">
<path d="M44.022 46.6676C43.7648 46.6701 43.5106 46.7252 43.2739 46.8297C43.0372 46.9343 42.8227 47.0861 42.6425 47.2767C42.4624 47.4672 42.3202 47.6927 42.224 47.9403C42.1279 48.1879 42.0797 48.4527 42.0821 48.7197C42.0846 48.9866 42.1377 49.2504 42.2384 49.496C42.3391 49.7416 42.4854 49.9643 42.6691 50.1512C42.8527 50.3382 43.07 50.4857 43.3086 50.5855C43.5472 50.6853 43.8023 50.7353 44.0596 50.7328C44.3168 50.7302 44.571 50.6751 44.8077 50.5706C45.0444 50.4661 45.2589 50.3142 45.439 50.1237C45.6192 49.9331 45.7614 49.7076 45.8575 49.46C45.9537 49.2125 46.0019 48.9476 45.9995 48.6807C45.997 48.4138 45.9439 48.15 45.8432 47.9043C45.7425 47.6587 45.5961 47.4361 45.4125 47.2491C45.2289 47.0622 45.0116 46.9146 44.773 46.8148C44.5344 46.7151 44.2792 46.665 44.022 46.6676ZM44.0176 50.3741C43.7003 50.3687 43.3915 50.2662 43.13 50.0796C42.8685 49.893 42.6658 49.6305 42.5473 49.3249C42.4288 49.0193 42.3998 48.6843 42.464 48.3617C42.5281 48.0391 42.6824 47.7433 42.9077 47.5114C43.1331 47.2794 43.4193 47.1215 43.7306 47.0575C44.042 46.9935 44.3646 47.0262 44.6581 47.1515C44.9516 47.2769 45.203 47.4892 45.3808 47.7621C45.5585 48.035 45.6548 48.3562 45.6576 48.6855C45.662 48.9098 45.6224 49.1326 45.5413 49.3405C45.4602 49.5484 45.3392 49.737 45.1857 49.8949C45.0322 50.0528 44.8494 50.1767 44.6484 50.2591C44.4474 50.3415 44.2323 50.3806 44.0163 50.3741H44.0176Z" fill="#155CAC"/>
<path d="M44.4349 48.8597C44.4778 48.8477 44.5192 48.8306 44.5585 48.8089C44.6465 48.7571 44.718 48.6797 44.7642 48.5862C44.8136 48.4844 44.8379 48.3713 44.8348 48.2573C44.8381 48.1415 44.8138 48.0266 44.7642 47.9229C44.7166 47.8317 44.6453 47.7561 44.5585 47.7048C44.4644 47.6493 44.3576 47.6215 44.2495 47.6242H43.3887V49.77H43.7268V48.8854H44.0605L44.5139 49.77H44.9213L44.4349 48.8597ZM44.2419 48.5473H43.7268V47.9618H44.2419C44.2872 47.961 44.3315 47.9746 44.3691 48.0008C44.407 48.0246 44.4362 48.0609 44.4521 48.1038C44.4746 48.1517 44.4859 48.2045 44.4852 48.2578C44.4831 48.3107 44.4719 48.3629 44.4521 48.4117C44.4314 48.4528 44.401 48.4878 44.3638 48.5134C44.3268 48.5362 44.2845 48.5481 44.2415 48.5478L44.2419 48.5473Z" fill="#155CAC"/>
<path d="M5.20935 47.5689V54.4071H6.2198V47.5689H5.20935ZM3.18359 46.9624V47.9533H8.24775V46.9624H3.18359Z" fill="#155CAC"/>
<path d="M12.5707 49.9238C12.4131 49.6295 12.1712 49.3935 11.8785 49.2485C11.5369 49.0845 11.1635 49.0043 10.7872 49.014C10.4246 49.0092 10.0645 49.0788 9.72779 49.2187C9.43075 49.3371 9.16732 49.5314 8.9619 49.7836L9.6991 50.3049C9.85634 50.1853 10.032 50.0944 10.2187 50.036C10.4131 49.971 10.6161 49.9378 10.8204 49.9375C10.9598 49.9293 11.0994 49.9509 11.2305 50.001C11.3616 50.0511 11.4813 50.1287 11.5823 50.2289C11.7713 50.452 11.8676 50.7436 11.8502 51.0401V54.409H12.8073V50.9934C12.8175 50.6218 12.7361 50.2536 12.5707 49.9238ZM11.5655 53.5066C11.2893 53.6067 10.9969 53.6502 10.7047 53.6348C10.4294 53.655 10.1547 53.5878 9.91717 53.442C9.82954 53.3715 9.76003 53.2796 9.71483 53.1745C9.66963 53.0694 9.65012 52.9544 9.65805 52.8396C9.65092 52.7381 9.6644 52.6362 9.69764 52.5405C9.73087 52.4448 9.7831 52.3573 9.85096 52.2839C10.0215 52.152 10.2321 52.0884 10.4442 52.1048H11.9601L11.8953 51.2623H10.4385C9.97351 51.2261 9.51179 51.3676 9.14024 51.66C8.99051 51.8125 8.87466 51.9972 8.80078 52.201C8.7269 52.4048 8.69677 52.6229 8.71249 52.84C8.69513 53.0701 8.72834 53.3013 8.80963 53.5161C8.89092 53.7309 9.01815 53.9238 9.18174 54.0801C9.59435 54.3817 10.095 54.5253 10.5983 54.4864C10.7927 54.4891 10.9865 54.466 11.1753 54.4177C11.3355 54.3757 11.4875 54.3048 11.6242 54.2084C11.7097 54.151 11.786 54.0801 11.8502 53.9981C11.8893 53.9551 11.9239 53.908 11.9535 53.8575L11.8502 53.1089C11.8493 53.1979 11.8212 53.2842 11.7701 53.3555C11.7189 53.4269 11.6473 53.4796 11.5655 53.5061V53.5066Z" fill="#155CAC"/>
<path d="M20.8443 50.0103C20.7253 49.7046 20.5162 49.4458 20.247 49.2709C19.9624 49.0933 19.6347 49.0041 19.3028 49.0139C18.9881 49.0125 18.681 49.1145 18.4256 49.3053C18.1605 49.5039 17.9492 49.7701 17.812 50.0781C17.8022 50.0916 17.7936 50.106 17.7864 50.1211L17.989 51.1386C17.9721 50.8375 18.0629 50.5406 18.2442 50.3048C18.3374 50.2043 18.4505 50.1258 18.5757 50.075C18.7009 50.0241 18.8352 50.0021 18.9695 50.0103C19.1147 50.0011 19.2602 50.0237 19.3964 50.0767C19.5326 50.1298 19.6566 50.212 19.7601 50.3181C19.8596 50.4366 19.9356 50.5742 19.9838 50.7232C20.0319 50.8721 20.0513 51.0295 20.0409 51.1862V54.409H21.05V51.1817C21.0594 50.7807 20.9893 50.382 20.8443 50.0103ZM17.8124 50.0776C17.804 50.0566 17.7952 50.0318 17.7868 50.0103C17.6732 49.7079 17.4719 49.4495 17.2107 49.2709C16.9355 49.0935 16.616 49.0042 16.2921 49.0139C15.9899 49.0123 15.6941 49.1045 15.4427 49.2787C15.2329 49.421 15.057 49.611 14.9285 49.8344C14.8909 49.8944 14.8578 49.9548 14.8252 50.0176L14.9285 51.0438C14.9208 50.9041 14.9406 50.7642 14.9866 50.6326C15.0327 50.5011 15.1041 50.3807 15.1964 50.2787C15.4078 50.0882 15.6829 49.9916 15.9623 50.0098C16.1021 50.0009 16.2421 50.0238 16.3724 50.077C16.5027 50.1302 16.6203 50.2123 16.7168 50.3177C16.9071 50.5622 17.0016 50.8721 16.9816 51.1858V54.4085H17.9908V51.1386C17.9948 50.7765 17.9342 50.4168 17.812 50.0776H17.8124ZM13.9229 49.0913V54.409H14.9289V49.0913H13.9229Z" fill="#155CAC"/>
<path d="M33.0204 49.0913L32.1101 52.8867L30.8331 49.0913H30.1312L28.851 52.8867L27.9452 49.0913H26.8945L28.4722 54.409H29.2342L30.4825 50.7368L31.7309 54.409H32.4893L34.0715 49.0913H33.0204Z" fill="#155CAC"/>
<path d="M41.7933 53.4423C41.7496 53.4443 41.7061 53.4358 41.6661 53.4173C41.6261 53.3989 41.5908 53.371 41.5629 53.336C41.5038 53.2488 41.4749 53.1433 41.4808 53.0369V46.9624H40.4752V53.0241C40.4519 53.4 40.5636 53.7716 40.7886 54.0672C40.9013 54.1918 41.0391 54.2893 41.1921 54.3526C41.3451 54.416 41.5097 54.4436 41.6742 54.4336H42.2675V53.4418L41.7933 53.4423Z" fill="#155CAC"/>
<path d="M27.3321 42.1972C27.3043 42.7927 26.9565 43.0749 26.3707 43.1381C26.1982 43.154 26.025 43.1588 25.852 43.1524C19.5897 43.1524 13.4586 43.1523 7.18969 43.1455C6.82815 43.1455 6.09845 43.1666 5.92099 42.9751C5.85256 44.3769 5.12287 45.2335 3.66347 45.2834C2.69495 45.3187 1.81472 45.0851 1.32384 44.0924C1.10119 43.541 1.02792 42.9371 1.11194 42.3457C1.19596 41.7543 1.43409 41.198 1.80059 40.7368C1.99924 40.8495 2.20274 40.9658 2.40139 41.0831C2.17144 41.5 1.99879 41.9483 1.88844 42.4148C1.8036 42.7567 1.82768 43.1179 1.95706 43.4443C2.08644 43.7708 2.31417 44.0451 2.60622 44.2261C2.92491 44.4022 3.28472 44.4823 3.64497 44.4573C4.00522 44.4323 4.35154 44.3032 4.64479 44.0846C4.81135 43.9113 4.9373 43.7006 5.01293 43.4687C5.08855 43.2368 5.11182 42.9901 5.08093 42.7474C5.08843 40.6516 5.08093 37.6203 5.08093 35.5245V35.5103H5.90024V35.6376C5.90024 37.1952 5.90024 39.6895 5.90686 41.2462C5.90686 42.0964 6.10418 42.3081 6.93012 42.3081H25.8643C26.4104 42.3081 26.5331 42.1885 26.5397 41.6296C26.5473 40.7019 26.5397 39.7816 26.5397 38.8265H27.3379C27.3383 39.9667 27.3727 41.0849 27.3321 42.1972Z" fill="#155CAC"/>
<path d="M1.94264 35.3292C1.68507 35.3318 1.43052 35.3869 1.1935 35.4916C0.956489 35.5962 0.741659 35.7483 0.561277 35.9391C0.380895 36.1299 0.238494 36.3557 0.142205 36.6036C0.0459164 36.8516 -0.00237401 37.1167 8.97371e-05 37.384C0.00255348 37.6513 0.0557248 37.9155 0.156566 38.1614C0.257407 38.4074 0.403943 38.6303 0.587809 38.8175C0.771676 39.0047 0.98927 39.1525 1.22817 39.2524C1.46707 39.3524 1.7226 39.4025 1.98016 39.3999C2.50033 39.3948 2.99722 39.1754 3.36152 38.79C3.72582 38.4046 3.92768 37.8849 3.92271 37.3451C3.91773 36.8053 3.70632 36.2896 3.33499 35.9116C2.96365 35.5335 2.46281 35.324 1.94264 35.3292ZM1.93822 39.0398C1.62007 39.0361 1.31005 38.935 1.04708 38.7491C0.78411 38.5632 0.5799 38.3009 0.460071 37.995C0.340243 37.6891 0.310134 37.3534 0.373526 37.0298C0.436919 36.7062 0.590989 36.4093 0.816399 36.1762C1.04181 35.9432 1.32852 35.7844 1.64056 35.7199C1.95259 35.6553 2.27605 35.6878 2.57034 35.8134C2.86464 35.9389 3.11665 36.1518 3.29477 36.4254C3.47289 36.699 3.56918 37.0211 3.57154 37.3513C3.57684 37.575 3.53818 37.7976 3.45793 38.0054C3.37768 38.2131 3.2575 38.4018 3.10474 38.5598C2.95197 38.7178 2.7698 38.8419 2.56933 38.9245C2.36885 39.0071 2.15428 39.0465 1.93867 39.0403L1.93822 39.0398Z" fill="#155CAC"/>
<path d="M21.0513 35.8687C20.8399 35.8816 20.6409 35.9759 20.4931 36.1332C20.3452 36.2905 20.2594 36.4994 20.2523 36.7189C20.2493 36.8319 20.268 36.9444 20.3073 37.0499C20.3466 37.1553 20.4057 37.2516 20.4811 37.3332C20.5566 37.4148 20.6469 37.48 20.7468 37.525C20.8467 37.5701 20.9543 37.5941 21.0632 37.5957C21.2839 37.5941 21.4949 37.5015 21.6499 37.3384C21.8048 37.1753 21.8909 36.955 21.8894 36.726C21.8878 36.497 21.7986 36.278 21.6414 36.1172C21.4843 35.9564 21.272 35.867 21.0513 35.8687ZM21.5581 36.7322C21.5554 36.8624 21.5033 36.9862 21.4132 37.0767C21.3231 37.1673 21.2022 37.2173 21.0768 37.2159C20.9513 37.2146 20.8315 37.1619 20.7432 37.0693C20.655 36.9768 20.6055 36.8519 20.6055 36.7217C20.6055 36.5915 20.655 36.4666 20.7432 36.374C20.8315 36.2815 20.9513 36.2288 21.0768 36.2274C21.2022 36.226 21.3231 36.276 21.4132 36.3666C21.5033 36.4572 21.5554 36.581 21.5581 36.7111V36.7322Z" fill="#155CAC"/>
<path d="M44.3251 36.792V37.6587H43.5049V36.792H44.3251Z" fill="#155CAC"/>
<path d="M25.7451 44.1948H26.5592V45.0817H25.7451V44.1948Z" fill="#155CAC"/>
<path d="M45.5756 36.7812V37.6603H44.7979V36.7812H45.5756Z" fill="#155CAC"/>
<path d="M27.0342 44.1841H27.7894V45.0655H27.0342V44.1841Z" fill="#155CAC"/>
<path d="M2.35636 37.5262C2.39799 37.5141 2.43813 37.497 2.47599 37.4754C2.56519 37.4252 2.63709 37.3473 2.68169 37.2527C2.73319 37.1515 2.75887 37.0383 2.75629 36.9238C2.75886 36.8081 2.7332 36.6935 2.68169 36.5908C2.63465 36.498 2.56335 36.4208 2.47599 36.3681C2.38304 36.3147 2.27805 36.288 2.17184 36.2907H1.30664V38.4392H1.64787V37.5519H1.98159L2.43493 38.4392H2.84237L2.35636 37.5262ZM2.15904 37.2138H1.64787V36.6283H2.15904C2.20452 36.6276 2.24914 36.6412 2.28705 36.6673C2.3267 36.6905 2.35777 36.7268 2.37534 36.7704C2.39619 36.8187 2.40601 36.8714 2.40403 36.9243C2.40358 36.9774 2.3923 37.0299 2.37093 37.0782C2.35266 37.119 2.32434 37.1541 2.28882 37.1799C2.24923 37.2034 2.20421 37.2153 2.1586 37.2143L2.15904 37.2138Z" fill="#155CAC"/>
<path d="M32.0909 46.6885H28.7471V47.2552H32.0909V46.6885Z" fill="#155CAC"/>
<path d="M44.8 33.521H41.7041V34.0877H44.8V33.521Z" fill="#155CAC"/>
<path d="M31.0697 44.4414C30.9814 44.4484 30.8785 44.4558 30.7686 44.4558H28.9795V44.4414H31.0697Z" fill="#155CAC"/>
<path d="M31.7451 43.8037V43.1958C31.7451 43.4294 31.7582 43.6328 31.7451 43.8037Z" fill="#155CAC"/>
<path d="M44.9345 39.3867V38.8283H44.1439C44.1302 38.9319 44.122 39.0362 44.1191 39.1407C44.1191 39.6447 44.1191 40.1486 44.1147 40.6525V42.0928C44.1146 42.1879 44.0782 42.2792 44.0134 42.3466C43.9487 42.414 43.8608 42.452 43.7691 42.4524H42.2735C42.2281 42.4526 42.1831 42.4435 42.1411 42.4258H42.1366C42.0732 42.3977 42.0194 42.3505 41.9821 42.2903C41.9448 42.2301 41.9257 42.1597 41.9274 42.0882C41.9274 41.6654 41.9274 40.7253 41.923 40.5627C41.8528 39.3437 41.1774 38.6263 40.0645 38.6084C39.2942 38.5919 38.1527 38.9749 38.1527 40.4253V41.5311C38.1527 41.9796 38.2807 42.3127 36.6337 42.3127H32.6572C32.6572 41.697 32.6413 41.1674 32.6082 40.6287C32.564 39.8339 32.353 39.1275 31.5531 38.782C31.2805 38.6457 30.9808 38.5778 30.6781 38.5839C30.3755 38.5899 30.0785 38.6697 29.8112 38.8169C29.5438 38.964 29.3135 39.1744 29.1389 39.4309C28.9643 39.6875 28.8503 39.9831 28.8061 40.2938C28.732 40.7645 28.7276 41.2442 28.7933 41.7162C28.8355 42.0518 28.9811 42.3643 29.2084 42.6071C29.4356 42.8499 29.7324 43.01 30.0545 43.0635C30.6058 43.1551 31.1832 43.1551 31.7434 43.1963C31.7434 43.4254 31.7562 43.6315 31.7434 43.8029C31.7231 44.1616 31.5951 44.3842 31.068 44.4442C30.9797 44.4488 30.8782 44.4575 30.7714 44.4575H28.9791V45.299H31.4136C31.7433 45.2992 32.0595 45.164 32.2934 44.923C32.5273 44.682 32.6598 44.3547 32.662 44.0127V43.1533C34.1334 43.1533 35.5702 43.1446 37.004 43.1533C37.2715 43.1872 37.5428 43.1649 37.8018 43.0877C38.0608 43.0105 38.3022 42.88 38.5115 42.7039C38.922 43.0474 39.4282 43.2446 39.9551 43.2663C40.4819 43.288 41.0016 43.1331 41.437 42.8244L41.4414 42.8276C41.4677 42.9285 41.5251 43.0179 41.6047 43.082C41.6844 43.1462 41.782 43.1816 41.8828 43.1831H44.3257C44.8612 43.1831 44.9102 42.5632 44.919 42.478V42.4647L44.9318 41.8371C44.9473 41.0153 44.9345 40.1994 44.9345 39.3867ZM30.401 42.2898C30.201 42.2877 30.0089 42.208 29.8626 42.0665C29.7163 41.9249 29.6263 41.7316 29.6104 41.5247C29.5689 41.0947 29.5897 40.6606 29.6722 40.237C29.7294 39.9877 29.8734 39.7691 30.0764 39.6232C30.2794 39.4772 30.5272 39.4143 30.7722 39.4463C30.8905 39.439 31.009 39.4564 31.1207 39.4974C31.2324 39.5385 31.3351 39.6023 31.4226 39.6852C31.5101 39.7681 31.5807 39.8683 31.6303 39.98C31.6799 40.0917 31.7074 40.2126 31.7112 40.3355C31.8061 40.9512 31.7995 41.5889 31.8392 42.2985C31.2993 42.2985 30.8473 42.3328 30.401 42.2898ZM41.1037 41.0378C41.1121 42.1225 40.6675 42.6068 39.782 42.5037C39.7188 42.4962 39.6565 42.4818 39.5962 42.4606C39.0148 42.2856 38.7265 41.5298 38.8793 40.6062C39.0029 39.7848 39.3445 39.4381 40.0036 39.4472C40.6384 39.4518 41.0013 39.8325 41.0962 40.5975C41.1087 40.7437 41.1111 40.8907 41.1032 41.0373L41.1037 41.0378Z" fill="#155CAC"/>
<path d="M39.0674 2.63537C39.0771 11.3928 39.0771 20.151 39.0674 28.9099C39.0567 29.0769 38.9905 29.2349 38.8802 29.3571C38.1845 30.0974 37.4809 30.8267 36.7613 31.5422C36.6258 31.6733 36.4502 31.7509 36.2651 31.7612C35.878 31.7612 35.4878 31.7649 35.0971 31.7612C31.799 31.7676 28.4987 31.7603 25.1965 31.7392C25.0387 31.7141 24.8946 31.632 24.7895 31.5074C23.8112 30.4922 22.8432 29.4592 21.8649 28.4408C21.7942 28.3693 21.739 28.2831 21.7027 28.1878C21.6665 28.0925 21.6502 27.9903 21.6548 27.8879C21.6619 22.6399 21.6642 17.392 21.6619 12.1442C21.6619 11.7846 21.6619 11.6962 21.4685 11.6751H15.2442C14.7213 10.297 14.7213 8.76447 15.2442 7.38637H16.3893C16.4264 7.38271 16.4675 7.38271 16.501 7.38271C21.1441 7.37538 25.7898 7.38637 30.4324 7.36896C30.6257 7.36896 30.7922 7.37171 30.9348 7.38637H32.0114C32.5401 8.76333 32.5401 10.2982 32.0114 11.6751H25.8313C25.664 11.7109 25.6106 11.8268 25.6106 12.0742C25.6141 16.1339 25.6106 20.1939 25.6 24.2542C25.5929 25.3395 25.5417 26.4247 25.4945 27.5109C25.4812 27.7995 25.5726 27.8916 25.8516 27.8879C26.5747 27.8769 27.2951 27.8916 28.0146 27.9017C29.2101 27.9236 30.405 27.9511 31.6004 27.9727C32.7658 27.9937 33.9339 28.0075 35.0993 28.0354C35.1942 28.0391 35.2856 28.0391 35.3809 28.0428C35.6326 28.0501 35.7381 27.9896 35.7341 27.7042C35.7235 25.1741 35.727 22.6431 35.7164 20.113C35.7129 18.9356 35.6793 17.762 35.6723 16.5856C35.6449 12.2018 35.6255 7.81531 35.614 3.42606C35.6114 3.11959 35.5059 3.06645 35.2445 3.06645H35.0984C27.2997 3.07286 19.5029 3.07286 11.7083 3.06645C11.4876 3.06278 11.4024 3.12234 11.375 3.2671H11.3697C11.3597 3.32637 11.3552 3.38651 11.3565 3.44667C11.3635 6.66027 11.3671 9.87113 11.3494 13.0861C11.3256 18.2531 11.2854 23.42 11.2545 28.5861C11.251 28.9677 11.251 29.3447 11.2474 29.7249V31.681L10.6943 31.0997L8.18782 28.4665L8.18428 28.4592C8.05332 28.2622 7.98904 28.0257 8.00153 27.7867C8.01477 25.3551 8.00859 22.923 8.00859 20.4914C8.00859 14.6829 8.00741 8.87338 8.00506 3.06278C7.99208 2.91111 8.01247 2.75837 8.0647 2.61608C8.11694 2.47378 8.19963 2.34567 8.30656 2.2414C8.68046 1.88912 9.0473 1.52584 9.41369 1.16256C9.73639 0.846015 10.0591 0.528091 10.3849 0.218871C10.5067 0.107727 10.6608 0.0419512 10.8228 0.0319639C11.7118 0.0145559 12.6057 0.0209702 13.4957 0.0209702H34.3921C34.627 0.0209702 34.8609 0.0182201 35.0958 0.0108904C35.5301 0.00356075 35.9614 -0.00743349 36.3932 0.00722585C36.5979 0.02233 36.7922 0.106651 36.9463 0.247273C37.5981 0.866936 38.2366 1.5034 38.8617 2.15665C38.9828 2.28588 39.0557 2.45554 39.0674 2.63537Z" fill="#155CAC"/>
<path d="M38.8295 49.9243C38.6719 49.63 38.43 49.394 38.1373 49.249C37.7957 49.085 37.4223 49.0048 37.046 49.0145C36.6833 49.0097 36.3233 49.0793 35.9866 49.2192C35.6895 49.3376 35.4261 49.5319 35.2207 49.7841L35.9579 50.3054C36.1151 50.1858 36.2908 50.0949 36.4775 50.0365C36.6719 49.9715 36.8749 49.9383 37.0791 49.938C37.2186 49.9298 37.3582 49.9514 37.4893 50.0015C37.6204 50.0516 37.7401 50.1292 37.8411 50.2293C38.0301 50.4525 38.1264 50.7441 38.109 51.0407V54.4096H39.0661V50.9939C39.0763 50.6223 38.9949 50.2541 38.8295 49.9243ZM37.8243 53.5071C37.5481 53.6072 37.2557 53.6508 36.9635 53.6354C36.6882 53.6556 36.4135 53.5883 36.176 53.4425C36.0883 53.372 36.0188 53.2801 35.9736 53.175C35.9284 53.0699 35.9089 52.9549 35.9168 52.8401C35.9097 52.7386 35.9232 52.6367 35.9564 52.541C35.9897 52.4453 36.0419 52.3578 36.1097 52.2844C36.2803 52.1525 36.4909 52.0889 36.703 52.1053H38.2189L38.1541 51.2628H36.6973C36.2323 51.2266 35.7706 51.3681 35.399 51.6605C35.2493 51.813 35.1334 51.9977 35.0596 52.2015C34.9857 52.4053 34.9556 52.6234 34.9713 52.8405C34.9539 53.0706 34.9871 53.3018 35.0684 53.5166C35.1497 53.7314 35.2769 53.9243 35.4405 54.0806C35.8531 54.3822 36.3538 54.5258 36.8571 54.487C37.0515 54.4896 37.2453 54.4665 37.4341 54.4183C37.5943 54.3762 37.7463 54.3054 37.883 54.2089C37.9685 54.1515 38.0448 54.0806 38.109 53.9986C38.1481 53.9556 38.1827 53.9085 38.2123 53.858L38.109 53.1095C38.1081 53.1984 38.08 53.2847 38.0289 53.3561C37.9777 53.4274 37.9061 53.4801 37.8243 53.5066V53.5071Z" fill="#155CAC"/>
<path d="M25.9115 49.9243C25.7539 49.63 25.512 49.394 25.2193 49.249C24.8777 49.085 24.5043 49.0048 24.1281 49.0145C23.7654 49.0097 23.4053 49.0793 23.0686 49.2192C22.7716 49.3376 22.5081 49.5319 22.3027 49.7841L23.0399 50.3054C23.1972 50.1858 23.3729 50.0949 23.5595 50.0365C23.7539 49.9715 23.9569 49.9383 24.1612 49.938C24.3006 49.9298 24.4402 49.9514 24.5713 50.0015C24.7024 50.0516 24.8221 50.1292 24.9231 50.2293C25.1121 50.4525 25.2085 50.7441 25.1911 51.0407V54.4096H26.1481V50.9939C26.1584 50.6223 26.0769 50.2541 25.9115 49.9243ZM24.9063 53.5071C24.6301 53.6072 24.3378 53.6508 24.0455 53.6354C23.7702 53.6556 23.4955 53.5883 23.258 53.4425C23.1704 53.372 23.1009 53.2801 23.0557 53.175C23.0104 53.0699 22.9909 52.9549 22.9989 52.8401C22.9917 52.7386 23.0052 52.6367 23.0385 52.541C23.0717 52.4453 23.1239 52.3578 23.1918 52.2844C23.3623 52.1525 23.573 52.0889 23.7851 52.1053H25.301L25.2361 51.2628H23.7793C23.3143 51.2266 22.8526 51.3681 22.4811 51.6605C22.3313 51.813 22.2155 51.9977 22.1416 52.2015C22.0677 52.4053 22.0376 52.6234 22.0533 52.8405C22.0359 53.0706 22.0692 53.3018 22.1505 53.5166C22.2317 53.7314 22.359 53.9243 22.5226 54.0806C22.9352 54.3822 23.4358 54.5258 23.9391 54.487C24.1335 54.4896 24.3274 54.4665 24.5161 54.4183C24.6764 54.3762 24.8283 54.3054 24.965 54.2089C25.0505 54.1515 25.1268 54.0806 25.1911 53.9986C25.2301 53.9556 25.2648 53.9085 25.2944 53.858L25.1911 53.1095C25.1901 53.1984 25.162 53.2847 25.1109 53.3561C25.0597 53.4274 24.9881 53.4801 24.9063 53.5066V53.5071Z" fill="#155CAC"/>
</svg>
