<svg width="63" height="71" viewBox="0 0 63 71" fill="none" xmlns="http://www.w3.org/2000/svg">
<g filter="url(#filter0_d)">
<path d="M52.6696 52.1888C52.4022 52.1913 52.1378 52.2444 51.8917 52.3451C51.6456 52.4459 51.4225 52.5922 51.2352 52.7759C51.0479 52.9596 50.9 53.1769 50.8 53.4156C50.7 53.6542 50.6499 53.9095 50.6524 54.1667C50.655 54.424 50.7102 54.6783 50.8149 54.915C50.9197 55.1518 51.0718 55.3664 51.2628 55.5466C51.4537 55.7267 51.6797 55.869 51.9278 55.9652C52.1758 56.0614 52.4412 56.1096 52.7087 56.1071C52.9761 56.1047 53.2405 56.0515 53.4866 55.9508C53.7327 55.8501 53.9558 55.7037 54.1431 55.52C54.3304 55.3364 54.4783 55.119 54.5783 54.8804C54.6783 54.6417 54.7284 54.3865 54.7259 54.1292C54.7233 53.8719 54.6681 53.6176 54.5634 53.3809C54.4586 53.1441 54.3065 52.9295 54.1155 52.7494C53.9246 52.5692 53.6986 52.4269 53.4505 52.3308C53.2025 52.2346 52.9371 52.1863 52.6696 52.1888ZM52.6651 55.7614C52.3351 55.7562 52.014 55.6574 51.7421 55.4776C51.4701 55.2977 51.2593 55.0446 51.1362 54.7501C51.013 54.4556 50.9828 54.1327 51.0495 53.8217C51.1162 53.5108 51.2767 53.2257 51.511 53.0021C51.7452 52.7785 52.0429 52.6263 52.3666 52.5646C52.6904 52.503 53.0258 52.5345 53.3311 52.6553C53.6363 52.7761 53.8977 52.9808 54.0825 53.2438C54.2674 53.5068 54.3675 53.8164 54.3703 54.1338C54.3749 54.35 54.3338 54.5648 54.2494 54.7651C54.1651 54.9655 54.0393 55.1473 53.8797 55.2995C53.7201 55.4517 53.53 55.5712 53.321 55.6506C53.1119 55.7299 52.8883 55.7677 52.6637 55.7614H52.6651Z" fill="#C7D8EF"/>
<path d="M53.0957 54.3029C53.1403 54.2913 53.1834 54.2748 53.2242 54.2538C53.3157 54.2039 53.3901 54.1293 53.4381 54.0393C53.4896 53.9411 53.5148 53.8321 53.5115 53.7222C53.515 53.6106 53.4898 53.4999 53.4381 53.3999C53.3886 53.312 53.3145 53.2392 53.2242 53.1897C53.1264 53.1362 53.0153 53.1093 52.9029 53.112H52.0078V55.1802H52.3594V54.3276H52.7064L53.1778 55.1802H53.6015L53.0957 54.3029ZM52.8951 54.0017H52.3594V53.4374H52.8951C52.9421 53.4366 52.9883 53.4497 53.0273 53.475C53.0667 53.4979 53.0971 53.5329 53.1136 53.5743C53.137 53.6205 53.1488 53.6713 53.148 53.7227C53.1459 53.7737 53.1342 53.824 53.1136 53.871C53.0921 53.9106 53.0605 53.9443 53.0218 53.969C52.9833 53.9911 52.9394 54.0025 52.8946 54.0022L52.8951 54.0017Z" fill="#C7D8EF"/>
<path d="M12.3096 53.058V59.649H13.3603V53.058H12.3096ZM10.2031 52.4734V53.4285H15.4691V52.4734H10.2031Z" fill="#C7D8EF"/>
<path d="M19.9663 55.3281C19.8024 55.0445 19.5509 54.8171 19.2465 54.6773C18.8913 54.5192 18.5031 54.4419 18.1118 54.4512C17.7346 54.4466 17.3603 54.5137 17.0101 54.6486C16.7013 54.7627 16.4273 54.9499 16.2137 55.193L16.9803 55.6955C17.1438 55.5802 17.3265 55.4926 17.5206 55.4363C17.7227 55.3737 17.9338 55.3416 18.1462 55.3414C18.2912 55.3334 18.4364 55.3542 18.5727 55.4026C18.709 55.4509 18.8335 55.5256 18.9385 55.6222C19.1351 55.8372 19.2352 56.1183 19.2171 56.4042V59.6513H20.2123V56.3591C20.223 56.0009 20.1383 55.646 19.9663 55.3281ZM18.9211 58.7814C18.6338 58.8779 18.3298 58.9199 18.026 58.9051C17.7397 58.9245 17.4541 58.8597 17.2071 58.7192C17.1159 58.6512 17.0436 58.5627 16.9966 58.4614C16.9496 58.3601 16.9294 58.2492 16.9376 58.1385C16.9302 58.0407 16.9442 57.9425 16.9788 57.8503C17.0133 57.758 17.0676 57.6737 17.1382 57.603C17.3155 57.4758 17.5346 57.4145 17.7551 57.4303H19.3314L19.264 56.6183H17.7492C17.2656 56.5834 16.7855 56.7197 16.3992 57.0016C16.2435 57.1486 16.123 57.3266 16.0462 57.523C15.9693 57.7195 15.938 57.9297 15.9544 58.139C15.9363 58.3608 15.9709 58.5836 16.0554 58.7906C16.1399 58.9977 16.2722 59.1836 16.4423 59.3343C16.8714 59.6249 17.392 59.7634 17.9153 59.7259C18.1174 59.7284 18.319 59.7062 18.5153 59.6597C18.6819 59.6192 18.8399 59.5509 18.9821 59.4579C19.071 59.4026 19.1503 59.3342 19.2171 59.2552C19.2578 59.2138 19.2938 59.1683 19.3245 59.1197L19.2171 58.3982C19.2161 58.4839 19.187 58.5671 19.1338 58.6359C19.0806 58.7046 19.0061 58.7554 18.9211 58.781V58.7814Z" fill="#C7D8EF"/>
<path d="M28.5678 55.411C28.4441 55.1164 28.2267 54.867 27.9468 54.6984C27.6508 54.5272 27.3101 54.4412 26.9649 54.4506C26.6376 54.4493 26.3184 54.5476 26.0528 54.7315C25.7771 54.9229 25.5574 55.1795 25.4147 55.4764C25.4045 55.4894 25.3956 55.5033 25.3881 55.5179L25.5988 56.4986C25.5812 56.2084 25.6757 55.9222 25.8641 55.6949C25.961 55.598 26.0786 55.5224 26.2088 55.4734C26.339 55.4244 26.4787 55.4031 26.6183 55.411C26.7693 55.4021 26.9206 55.4239 27.0623 55.4751C27.2039 55.5262 27.3328 55.6055 27.4404 55.7077C27.5439 55.8219 27.6229 55.9546 27.673 56.0981C27.7231 56.2417 27.7433 56.3934 27.7324 56.5445V59.6508H28.7817V56.5401C28.7915 56.1536 28.7187 55.7693 28.5678 55.411ZM25.4152 55.4759C25.4065 55.4556 25.3973 55.4318 25.3885 55.411C25.2704 55.1196 25.0611 54.8705 24.7895 54.6984C24.5033 54.5274 24.171 54.4413 23.8343 54.4506C23.52 54.4491 23.2124 54.538 22.9511 54.7059C22.7328 54.843 22.5499 55.0262 22.4163 55.2415C22.3773 55.2993 22.3428 55.3576 22.3089 55.4181L22.4163 56.4072C22.4083 56.2725 22.4289 56.1377 22.4768 56.0109C22.5247 55.8841 22.5989 55.7681 22.6949 55.6698C22.9147 55.4861 23.2008 55.393 23.4914 55.4106C23.6367 55.402 23.7822 55.4241 23.9178 55.4753C24.0533 55.5266 24.1755 55.6058 24.2758 55.7073C24.4737 55.943 24.5721 56.2417 24.5513 56.544V59.6503H25.6006V56.4986C25.6048 56.1496 25.5418 55.8028 25.4147 55.4759H25.4152ZM21.3706 54.5253V59.6508H22.4167V54.5253H21.3706Z" fill="#C7D8EF"/>
<path d="M41.2254 54.5251L40.2789 58.1834L38.9509 54.5251H38.2211L36.8899 58.1834L35.948 54.5251H34.8555L36.496 59.6506H37.2883L38.5865 56.1112L39.8846 59.6506H40.6732L42.3184 54.5251H41.2254Z" fill="#C7D8EF"/>
<path d="M50.3504 58.7191C50.3049 58.7211 50.2596 58.7128 50.218 58.695C50.1765 58.6773 50.1397 58.6504 50.1108 58.6167C50.0494 58.5326 50.0193 58.431 50.0254 58.3283V52.4734H48.9797V58.316C48.9555 58.6783 49.0716 59.0365 49.3056 59.3214C49.4228 59.4416 49.5661 59.5355 49.7252 59.5965C49.8843 59.6576 50.0554 59.6842 50.2264 59.6746H50.8434V58.7187L50.3504 58.7191Z" fill="#C7D8EF"/>
<path d="M35.3153 47.8804C35.2864 48.4544 34.9246 48.7264 34.3155 48.7873C34.1362 48.8026 33.9561 48.8072 33.7762 48.801C27.2644 48.801 20.8889 48.801 14.3702 48.7944C13.9943 48.7944 13.2355 48.8147 13.051 48.6301C12.9798 49.9812 12.221 50.8069 10.7035 50.8551C9.69639 50.8891 8.78108 50.6639 8.27064 49.707C8.03912 49.1756 7.96293 48.5935 8.0503 48.0235C8.13767 47.4534 8.38528 46.9172 8.76639 46.4727C8.97295 46.5813 9.18457 46.6935 9.39113 46.8065C9.15202 47.2084 8.97249 47.6404 8.85774 48.0901C8.76952 48.4196 8.79456 48.7677 8.92909 49.0824C9.06363 49.3971 9.30044 49.6615 9.60412 49.836C9.93551 50.0057 10.3097 50.0829 10.6843 50.0588C11.0589 50.0347 11.419 49.9102 11.7239 49.6995C11.8971 49.5325 12.0281 49.3294 12.1067 49.1059C12.1854 48.8824 12.2096 48.6446 12.1774 48.4107C12.1852 46.3906 12.1774 43.4688 12.1774 41.4487V41.4351H13.0294V41.5578C13.0294 43.0591 13.0294 45.4633 13.0363 46.9637C13.0363 47.7832 13.2415 47.9872 14.1003 47.9872H33.789C34.3568 47.9872 34.4844 47.872 34.4913 47.3333C34.4991 46.4391 34.4913 45.5521 34.4913 44.6314H35.3212C35.3217 45.7305 35.3575 46.8083 35.3153 47.8804Z" fill="#C7D8EF"/>
<path d="M8.91458 41.2603C8.64675 41.2628 8.38205 41.316 8.13559 41.4169C7.88913 41.5177 7.66574 41.6643 7.47817 41.8482C7.2906 42.0321 7.14253 42.2498 7.0424 42.4887C6.94228 42.7277 6.89206 42.9833 6.89462 43.2409C6.89719 43.4985 6.95248 43.7532 7.05734 43.9902C7.1622 44.2273 7.31457 44.4422 7.50576 44.6226C7.69696 44.8031 7.92322 44.9455 8.17164 45.0418C8.42006 45.1381 8.68577 45.1864 8.95359 45.184C9.49449 45.179 10.0112 44.9675 10.39 44.5961C10.7688 44.2247 10.9787 43.7237 10.9735 43.2034C10.9684 42.6831 10.7485 42.1861 10.3624 41.8217C9.97627 41.4573 9.45547 41.2554 8.91458 41.2603ZM8.90998 44.8369C8.57915 44.8333 8.25678 44.7358 7.98333 44.5567C7.70989 44.3775 7.49754 44.1247 7.37294 43.8298C7.24833 43.535 7.21702 43.2114 7.28294 42.8995C7.34886 42.5876 7.50907 42.3014 7.74346 42.0768C7.97785 41.8522 8.27599 41.6991 8.60046 41.6369C8.92493 41.5747 9.26127 41.606 9.56729 41.727C9.87331 41.848 10.1354 42.0532 10.3206 42.3169C10.5058 42.5806 10.6059 42.8911 10.6084 43.2093C10.6139 43.425 10.5737 43.6395 10.4902 43.8398C10.4068 44.0401 10.2818 44.2219 10.123 44.3742C9.96412 44.5265 9.7747 44.6461 9.56624 44.7257C9.35778 44.8054 9.13465 44.8433 8.91045 44.8373L8.90998 44.8369Z" fill="#C7D8EF"/>
<path d="M28.7843 41.7801C28.5645 41.7925 28.3575 41.8834 28.2038 42.035C28.0501 42.1866 27.9608 42.3879 27.9534 42.5996C27.9504 42.7085 27.9699 42.8169 28.0107 42.9186C28.0516 43.0202 28.113 43.113 28.1914 43.1916C28.2699 43.2703 28.3638 43.3331 28.4677 43.3766C28.5716 43.42 28.6834 43.4432 28.7967 43.4447C29.0262 43.4431 29.2456 43.3539 29.4067 43.1967C29.5678 43.0395 29.6574 42.8272 29.6558 42.6064C29.6541 42.3857 29.5614 42.1746 29.398 42.0196C29.2345 41.8646 29.0138 41.7785 28.7843 41.7801ZM29.3113 42.6124C29.3085 42.7378 29.2544 42.8572 29.1607 42.9445C29.067 43.0318 28.9412 43.08 28.8108 43.0786C28.6804 43.0773 28.5557 43.0265 28.464 42.9373C28.3722 42.8481 28.3208 42.7277 28.3208 42.6022C28.3208 42.4767 28.3722 42.3563 28.464 42.2671C28.5557 42.1779 28.6804 42.1271 28.8108 42.1258C28.9412 42.1245 29.067 42.1727 29.1607 42.26C29.2544 42.3473 29.3085 42.4666 29.3113 42.5921V42.6124Z" fill="#C7D8EF"/>
<path d="M52.9857 42.6709V43.5063H52.1328V42.6709H52.9857Z" fill="#C7D8EF"/>
<path d="M33.6636 49.8049H34.5101V50.6598H33.6636V49.8049Z" fill="#C7D8EF"/>
<path d="M54.2863 42.6597V43.507H53.4775V42.6597H54.2863Z" fill="#C7D8EF"/>
<path d="M35.0039 49.7964H35.7893V50.6459H35.0039V49.7964Z" fill="#C7D8EF"/>
<path d="M9.34545 43.3783C9.38874 43.3666 9.43048 43.3502 9.46985 43.3293C9.5626 43.2809 9.63737 43.2059 9.68375 43.1147C9.7373 43.0171 9.764 42.908 9.76132 42.7977C9.764 42.6861 9.73731 42.5757 9.68375 42.4767C9.63483 42.3872 9.56069 42.3128 9.46985 42.2621C9.37319 42.2106 9.26403 42.1848 9.15359 42.1874H8.25391V44.2583H8.60873V43.403H8.95575L9.42716 44.2583H9.85083L9.34545 43.3783ZM9.14027 43.0772H8.60873V42.5129H9.14027C9.18756 42.5122 9.23396 42.5253 9.27339 42.5504C9.31462 42.5728 9.34692 42.6077 9.36519 42.6497C9.38688 42.6963 9.39708 42.7471 9.39503 42.7981C9.39455 42.8493 9.38282 42.8999 9.3606 42.9465C9.34161 42.9858 9.31216 43.0196 9.27523 43.0445C9.23405 43.0671 9.18724 43.0786 9.13981 43.0776L9.14027 43.0772Z" fill="#C7D8EF"/>
<path d="M40.2623 52.2085H36.7852V52.7547H40.2623V52.2085Z" fill="#C7D8EF"/>
<path d="M53.4775 39.5171H50.2583V40.0633H53.4775V39.5171Z" fill="#C7D8EF"/>
<path d="M39.2037 50.0427C39.1119 50.0494 39.005 50.0566 38.8907 50.0566H37.0303V50.0427H39.2037Z" fill="#C7D8EF"/>
<path d="M39.9062 49.428V48.842C39.9062 49.0672 39.9198 49.2633 39.9062 49.428Z" fill="#C7D8EF"/>
<path d="M53.6176 45.1714V44.6332H52.7955C52.7813 44.7331 52.7727 44.8336 52.7698 44.9343C52.7698 45.42 52.7698 45.9057 52.7652 46.3914V47.7797C52.7651 47.8714 52.7272 47.9594 52.6598 48.0243C52.5925 48.0893 52.5011 48.1259 52.4058 48.1263H50.8506C50.8034 48.1265 50.7566 48.1178 50.7128 48.1007H50.7083C50.6423 48.0736 50.5863 48.0281 50.5476 47.9701C50.5088 47.9121 50.489 47.8442 50.4907 47.7753C50.4907 47.3677 50.4907 46.4616 50.4861 46.3049C50.4131 45.1299 49.7108 44.4385 48.5536 44.4212C47.7526 44.4053 46.5655 44.7745 46.5655 46.1724V47.2383C46.5655 47.6706 46.6986 47.9916 44.986 47.9916H40.8511C40.8511 47.3982 40.8345 46.8877 40.8001 46.3685C40.7542 45.6024 40.5348 44.9215 39.703 44.5886C39.4195 44.4572 39.1078 44.3917 38.7932 44.3976C38.4785 44.4034 38.1697 44.4803 37.8916 44.6222C37.6136 44.764 37.3741 44.9668 37.1926 45.214C37.011 45.4613 36.8925 45.7462 36.8465 46.0457C36.7694 46.4994 36.765 46.9617 36.8332 47.4167C36.8771 47.7402 37.0285 48.0414 37.2648 48.2754C37.5011 48.5094 37.8097 48.6637 38.1446 48.7153C38.718 48.8036 39.3184 48.8036 39.9009 48.8434C39.9009 49.0641 39.9142 49.2628 39.9009 49.428C39.8798 49.7737 39.7466 49.9883 39.1986 50.0461C39.1068 50.0506 39.0012 50.059 38.8901 50.059H37.0264V50.8701H39.558C39.9007 50.8702 40.2296 50.7399 40.4728 50.5076C40.716 50.2753 40.8538 49.9599 40.8561 49.6302V48.8019C42.3861 48.8019 43.8802 48.7935 45.3711 48.8019C45.6493 48.8346 45.9314 48.8131 46.2007 48.7387C46.47 48.6642 46.721 48.5384 46.9387 48.3687C47.3655 48.6998 47.8918 48.8899 48.4397 48.9108C48.9876 48.9317 49.528 48.7824 49.9807 48.4848L49.9853 48.4879C50.0127 48.5853 50.0723 48.6713 50.1552 48.7332C50.238 48.795 50.3395 48.8292 50.4443 48.8306H52.9846C53.5414 48.8306 53.5923 48.2331 53.6015 48.151V48.1382L53.6148 47.5333C53.6309 46.7411 53.6176 45.9547 53.6176 45.1714ZM38.505 47.9695C38.297 47.9675 38.0973 47.8908 37.9452 47.7543C37.793 47.6179 37.6995 47.4316 37.6829 47.2322C37.6397 46.8177 37.6614 46.3993 37.7471 45.991C37.8066 45.7507 37.9563 45.54 38.1674 45.3993C38.3786 45.2587 38.6362 45.198 38.891 45.2288C39.014 45.2218 39.1372 45.2386 39.2534 45.2781C39.3695 45.3177 39.4763 45.3792 39.5673 45.4591C39.6583 45.539 39.7317 45.6356 39.7833 45.7433C39.8348 45.8509 39.8634 45.9674 39.8674 46.0859C39.9661 46.6793 39.9592 47.294 40.0005 47.9779C39.4391 47.9779 38.9691 48.011 38.505 47.9695ZM49.6341 46.7628C49.6429 47.8084 49.1806 48.2751 48.2598 48.1757C48.194 48.1685 48.1293 48.1546 48.0665 48.1342C47.462 47.9656 47.1623 47.237 47.3211 46.3468C47.4496 45.5551 47.8049 45.2209 48.4902 45.2297C49.1503 45.2341 49.5276 45.6011 49.6263 46.3385C49.6394 46.4794 49.6418 46.6211 49.6337 46.7623L49.6341 46.7628Z" fill="#C7D8EF"/>
<path d="M47.5592 9.74765C47.5693 18.1886 47.5693 26.6303 47.5592 35.0727C47.5481 35.2337 47.4793 35.386 47.3646 35.5037C46.6412 36.2172 45.9095 36.9202 45.1613 37.6099C45.0204 37.7363 44.8377 37.811 44.6453 37.8209C44.2428 37.8209 43.837 37.8245 43.4307 37.8209C40.0012 37.8271 36.5695 37.8201 33.1356 37.7997C32.9716 37.7755 32.8217 37.6964 32.7124 37.5763C31.6952 36.5978 30.6885 35.6021 29.6713 34.6206C29.5978 34.5517 29.5403 34.4685 29.5027 34.3766C29.465 34.2848 29.448 34.1863 29.4528 34.0876C29.4602 29.0292 29.4626 23.971 29.4602 18.9129C29.4602 18.5663 29.4602 18.4811 29.2591 18.4608H22.7868C22.243 17.1325 22.243 15.6553 22.7868 14.327H23.9775C24.0161 14.3234 24.0588 14.3234 24.0937 14.3234C28.9217 14.3164 33.7526 14.327 38.5802 14.3102C38.7812 14.3102 38.9543 14.3128 39.1025 14.327H40.2221C40.7718 15.6542 40.7718 17.1336 40.2221 18.4608H33.7957C33.6217 18.4952 33.5662 18.6069 33.5662 18.8453C33.5699 22.7584 33.5662 26.6717 33.5552 30.5853C33.5478 31.6313 33.4946 32.6773 33.4455 33.7242C33.4317 34.0024 33.5267 34.0912 33.8168 34.0876C34.5687 34.077 35.3178 34.0912 36.0661 34.1009C37.3091 34.1221 38.5517 34.1486 39.7948 34.1693C41.0066 34.1896 42.2212 34.2029 43.433 34.2298C43.5317 34.2333 43.6267 34.2333 43.7259 34.2369C43.9875 34.2439 44.0972 34.1857 44.0931 33.9106C44.0821 31.4719 44.0858 29.0323 44.0748 26.5937C44.0711 25.4589 44.0362 24.3276 44.0288 23.1937C44.0004 18.9684 43.9802 14.7404 43.9683 10.5098C43.9655 10.2144 43.8558 10.1632 43.584 10.1632H43.4321C35.3226 10.1693 27.2152 10.1693 19.11 10.1632C18.8805 10.1596 18.7919 10.217 18.7634 10.3566H18.7579C18.7475 10.4137 18.7428 10.4716 18.7441 10.5296C18.7515 13.6271 18.7551 16.7219 18.7368 19.8207C18.712 24.801 18.6702 29.7812 18.6381 34.7606C18.6344 35.1284 18.6344 35.4918 18.6307 35.8582V37.7437L18.0556 37.1833L15.4492 34.6453L15.4455 34.6382C15.3093 34.4484 15.2425 34.2204 15.2555 33.9901C15.2693 31.6463 15.2628 29.3021 15.2628 26.9584C15.2628 21.3598 15.2616 15.7602 15.2592 10.1596C15.2457 10.0134 15.2669 9.86621 15.3212 9.72906C15.3755 9.59191 15.4615 9.46842 15.5727 9.36792C15.9615 9.02837 16.3429 8.67822 16.7239 8.32807C17.0595 8.02296 17.395 7.71653 17.7338 7.41848C17.8605 7.31135 18.0208 7.24795 18.1892 7.23833C19.1136 7.22155 20.0432 7.22773 20.9686 7.22773H42.6977C42.9419 7.22773 43.1851 7.22508 43.4294 7.21802C43.881 7.21095 44.3295 7.20035 44.7784 7.21448C44.9913 7.22904 45.1933 7.31032 45.3536 7.44586C46.0314 8.04313 46.6954 8.65659 47.3453 9.28624C47.4712 9.4108 47.547 9.57432 47.5592 9.74765Z" fill="#C7D8EF"/>
<path d="M47.2744 55.3281C47.1105 55.0445 46.859 54.8171 46.5546 54.6773C46.1994 54.5192 45.8112 54.4419 45.4199 54.4512C45.0428 54.4466 44.6684 54.5137 44.3182 54.6486C44.0094 54.7627 43.7354 54.9499 43.5218 55.193L44.2884 55.6955C44.4519 55.5802 44.6346 55.4926 44.8287 55.4363C45.0309 55.3737 45.2419 55.3416 45.4543 55.3414C45.5994 55.3334 45.7445 55.3543 45.8808 55.4026C46.0171 55.4509 46.1416 55.5256 46.2466 55.6222C46.4432 55.8372 46.5433 56.1183 46.5253 56.4042V59.6513H47.5204V56.3591C47.5311 56.0009 47.4464 55.646 47.2744 55.3281ZM46.2292 58.7815C45.9419 58.878 45.6379 58.92 45.3341 58.9051C45.0478 58.9246 44.7622 58.8597 44.5152 58.7192C44.424 58.6512 44.3518 58.5627 44.3048 58.4614C44.2577 58.3601 44.2375 58.2492 44.2457 58.1386C44.2383 58.0408 44.2523 57.9425 44.2869 57.8503C44.3214 57.758 44.3757 57.6738 44.4463 57.603C44.6236 57.4758 44.8427 57.4145 45.0632 57.4303H46.6395L46.5721 56.6183H45.0573C44.5737 56.5834 44.0936 56.7197 43.7073 57.0016C43.5516 57.1486 43.4311 57.3266 43.3543 57.523C43.2775 57.7195 43.2461 57.9297 43.2625 58.139C43.2444 58.3608 43.279 58.5836 43.3635 58.7907C43.448 58.9977 43.5803 59.1836 43.7504 59.3343C44.1795 59.625 44.7001 59.7634 45.2234 59.7259C45.4255 59.7285 45.6271 59.7062 45.8234 59.6597C45.9901 59.6192 46.1481 59.5509 46.2902 59.4579C46.3791 59.4026 46.4584 59.3342 46.5253 59.2553C46.5659 59.2138 46.6019 59.1684 46.6327 59.1197L46.5253 58.3982C46.5243 58.4839 46.4951 58.5671 46.4419 58.6359C46.3887 58.7047 46.3142 58.7555 46.2292 58.781V58.7815Z" fill="#C7D8EF"/>
<path d="M33.8374 55.3281C33.6735 55.0445 33.422 54.8171 33.1176 54.6773C32.7624 54.5192 32.3742 54.4419 31.9829 54.4512C31.6057 54.4466 31.2314 54.5137 30.8812 54.6486C30.5723 54.7627 30.2984 54.9499 30.0848 55.193L30.8514 55.6955C31.0149 55.5802 31.1976 55.4926 31.3917 55.4363C31.5938 55.3737 31.8049 55.3416 32.0173 55.3414C32.1623 55.3334 32.3075 55.3543 32.4438 55.4026C32.5801 55.4509 32.7046 55.5256 32.8096 55.6222C33.0062 55.8372 33.1063 56.1183 33.0882 56.4042V59.6513H34.0834V56.3591C34.0941 56.0009 34.0094 55.646 33.8374 55.3281ZM32.7922 58.7815C32.5049 58.878 32.2009 58.92 31.8971 58.9051C31.6108 58.9246 31.3252 58.8597 31.0781 58.7192C30.987 58.6512 30.9147 58.5627 30.8677 58.4614C30.8207 58.3601 30.8005 58.2492 30.8087 58.1386C30.8013 58.0408 30.8153 57.9425 30.8499 57.8503C30.8844 57.758 30.9387 57.6738 31.0093 57.603C31.1866 57.4758 31.4057 57.4145 31.6262 57.4303H33.2025L33.1351 56.6183H31.6203C31.1367 56.5834 30.6566 56.7197 30.2703 57.0016C30.1146 57.1486 29.9941 57.3266 29.9173 57.523C29.8404 57.7195 29.8091 57.9297 29.8255 58.139C29.8074 58.3608 29.8419 58.5836 29.9265 58.7907C30.011 58.9977 30.1433 59.1836 30.3134 59.3343C30.7425 59.625 31.2631 59.7634 31.7864 59.7259C31.9885 59.7285 32.1901 59.7062 32.3864 59.6597C32.553 59.6192 32.711 59.5509 32.8532 59.4579C32.9421 59.4026 33.0214 59.3342 33.0882 59.2553C33.1289 59.2138 33.1649 59.1684 33.1956 59.1197L33.0882 58.3982C33.0872 58.4839 33.0581 58.5671 33.0049 58.6359C32.9517 58.7047 32.8772 58.7555 32.7922 58.781V58.7815Z" fill="#C7D8EF"/>
<rect x="3.5" y="1.13672" width="56" height="62" stroke="white" stroke-opacity="0.29"/>
</g>
<defs>
<filter id="filter0_d" x="0" y="0.636719" width="63" height="70" filterUnits="userSpaceOnUse" color-interpolation-filters="sRGB">
<feFlood flood-opacity="0" result="BackgroundImageFix"/>
<feColorMatrix in="SourceAlpha" type="matrix" values="0 0 0 0 0 0 0 0 0 0 0 0 0 0 0 0 0 0 127 0" result="hardAlpha"/>
<feOffset dy="4"/>
<feGaussianBlur stdDeviation="1.5"/>
<feColorMatrix type="matrix" values="0 0 0 0 0 0 0 0 0 0 0 0 0 0 0 0 0 0 0.33 0"/>
<feBlend mode="normal" in2="BackgroundImageFix" result="effect1_dropShadow"/>
<feBlend mode="normal" in="SourceGraphic" in2="effect1_dropShadow" result="shape"/>
</filter>
</defs>
</svg>
