<svg width="202" height="173" viewBox="0 0 202 173" fill="none" xmlns="http://www.w3.org/2000/svg">
<g opacity="0.9">
<path d="M123.98 70.6234L106.719 100.531L123.98 130.44H158.502L175.763 100.531L158.502 70.6234H123.98Z" fill="url(#paint0_linear)"/>
<path d="M124.421 71.3827L107.598 100.531L124.421 129.678H158.065L174.888 100.531L158.065 71.3827H124.421Z" fill="url(#paint1_linear)"/>
<path d="M126.646 75.7505L112.146 100.873L126.646 125.996H155.644L170.144 100.873L155.644 75.7505H126.646Z" fill="url(#paint2_linear)"/>
<path d="M127.016 76.3886L112.885 100.873L127.016 125.358H155.277L169.408 100.873L155.277 76.3886H127.016Z" fill="url(#paint3_linear)"/>
<path d="M127.935 77.9853L114.726 100.873L127.935 123.761H154.355L167.564 100.873L154.355 77.9853H127.935Z" fill="url(#paint4_linear)"/>
<path d="M159.691 66.225H120.781C120.577 66.2244 120.389 66.3332 120.287 66.5099L100.833 100.219C100.731 100.395 100.731 100.613 100.833 100.789L120.288 134.497C120.446 134.77 120.794 134.863 121.066 134.706C121.339 134.549 121.432 134.2 121.275 133.928L101.984 100.504L121.111 67.365H159.691C160.006 67.365 160.261 67.11 160.261 66.7947C160.261 66.4806 160.007 66.225 159.692 66.225C159.692 66.225 159.692 66.225 159.691 66.225Z" fill="url(#paint5_linear)"/>
<path d="M40.0183 70.4659L22.7573 100.375L40.0183 130.282H74.5403L91.8013 100.375L74.5403 70.4659H40.0183Z" fill="url(#paint6_linear)"/>
<path d="M40.4585 71.226L23.6357 100.374L40.4585 129.521H74.103L90.9258 100.374L74.103 71.226H40.4585Z" fill="url(#paint7_linear)"/>
<path d="M42.683 75.5942L28.1836 100.718L42.683 125.84H71.6813L86.1813 100.718L71.6813 75.5942H42.683Z" fill="url(#paint8_linear)"/>
<path d="M43.0522 76.2314L28.9209 100.716L43.0522 125.198H71.3137L85.4445 100.716L71.3137 76.2314H43.0522Z" fill="url(#paint9_linear)"/>
<path d="M43.9734 123.604L30.7637 100.717L43.9734 77.8287H70.3922L83.6019 100.717L70.3922 123.604H43.9734Z" fill="url(#paint10_linear)"/>
<path d="M36.9547 134.497L17.5006 100.789C17.3985 100.613 17.398 100.395 17.5006 100.219L36.9553 66.5105C37.1126 66.2372 37.4608 66.1439 37.7334 66.3012C38.0066 66.4591 38.0993 66.807 37.9426 67.0802L18.6524 100.505L37.7776 133.643H76.358C76.6726 133.643 76.9281 133.898 76.9276 134.211C76.9281 134.527 76.6726 134.783 76.358 134.783H37.4492C37.245 134.783 37.0568 134.674 36.9547 134.497Z" fill="url(#paint11_linear)"/>
<path d="M131.468 61.851L140.689 45.8745L149.91 61.851H131.468Z" fill="url(#paint12_linear)"/>
<path d="M48.1362 61.8505L57.357 45.874L66.5772 61.8505H48.1362Z" fill="url(#paint13_linear)"/>
<path d="M50.1132 16.1659L42.71 28.9934L50.1132 41.8201H64.9191L72.3224 28.9934L64.9191 16.1659H50.1132Z" fill="url(#paint14_linear)"/>
<path d="M133.275 16.1658L125.818 28.8683L133.275 41.5698H148.188L155.645 28.8683L148.188 16.1658H133.275Z" fill="url(#paint15_linear)"/>
<g clip-path="url(#clip0)">
<path d="M63.7485 24.6821H63.0541V23.9875C63.0539 23.8033 62.9807 23.6267 62.8505 23.4965C62.7203 23.3663 62.5438 23.2931 62.3597 23.2928H54.2257C54.0416 23.2931 53.8651 23.3663 53.7349 23.4965C53.6047 23.6267 53.5315 23.8033 53.5313 23.9875V24.6821H52.8369C52.6529 24.6823 52.4764 24.7555 52.3462 24.8858C52.216 25.016 52.1428 25.1925 52.1426 25.3767V32.9183C52.1428 33.1025 52.216 33.279 52.3462 33.4092C52.4764 33.5395 52.6529 33.6127 52.8369 33.6129H56.6409L56.3576 34.6052H55.5152C55.4626 34.6052 55.4122 34.6261 55.3749 34.6634C55.3377 34.7006 55.3168 34.7511 55.3168 34.8037V35.3991C55.3168 35.4517 55.3377 35.5022 55.3749 35.5394C55.4122 35.5766 55.4626 35.5975 55.5152 35.5975H61.0702C61.1228 35.5975 61.1733 35.5766 61.2105 35.5394C61.2477 35.5022 61.2686 35.4517 61.2686 35.3991V34.8037C61.2686 34.7511 61.2477 34.7006 61.2105 34.6634C61.1733 34.6261 61.1228 34.6052 61.0702 34.6052H60.2278L59.9446 33.6129H63.7485C63.9326 33.6127 64.1091 33.5395 64.2392 33.4092C64.3694 33.279 64.4426 33.1025 64.4428 32.9183V25.3767C64.4426 25.1925 64.3694 25.016 64.2392 24.8858C64.1091 24.7555 63.9326 24.6823 63.7485 24.6821ZM53.9281 23.9875C53.9282 23.9085 53.9595 23.8329 54.0153 23.777C54.0711 23.7212 54.1468 23.6898 54.2257 23.6898H62.3597C62.4386 23.6898 62.5143 23.7212 62.5701 23.777C62.6259 23.8329 62.6573 23.9085 62.6573 23.9875V30.9337C62.6573 31.0126 62.6259 31.0883 62.5701 31.1441C62.5143 31.1999 62.4386 31.2313 62.3597 31.2314H54.2257C54.1468 31.2313 54.0711 31.1999 54.0153 31.1441C53.9595 31.0883 53.9282 31.0126 53.9281 30.9337V23.9875ZM60.8718 35.0022V35.2006H55.7136V35.0022H60.8718ZM56.7703 34.6052L57.0535 33.6129H59.5319L59.8151 34.6052H56.7703ZM64.0461 32.9183C64.046 32.9972 64.0146 33.0729 63.9588 33.1287C63.903 33.1845 63.8274 33.2159 63.7485 33.216H52.8369C52.758 33.2159 52.6824 33.1845 52.6266 33.1287C52.5708 33.0729 52.5394 32.9972 52.5394 32.9183V32.4221H64.0461V32.9183ZM64.0461 32.0252H52.5394V25.3767C52.5394 25.2978 52.5708 25.2221 52.6266 25.1663C52.6824 25.1105 52.758 25.0791 52.8369 25.079H53.5313V30.9337C53.5315 31.1178 53.6047 31.2944 53.7349 31.4246C53.8651 31.5548 54.0416 31.6281 54.2257 31.6283H62.3597C62.5438 31.6281 62.7203 31.5548 62.8505 31.4246C62.9807 31.2944 63.0539 31.1178 63.0541 30.9337V25.079H63.7485C63.8274 25.0791 63.903 25.1105 63.9588 25.1663C64.0146 25.2221 64.046 25.2978 64.0461 25.3767V32.0252Z" fill="url(#paint16_linear)"/>
<path d="M60.0783 28.4532C60.5099 28.4532 60.9318 28.3252 61.2907 28.0853C61.6496 27.8454 61.9293 27.5045 62.0945 27.1056C62.2597 26.7067 62.3029 26.2677 62.2187 25.8442C62.1345 25.4208 61.9266 25.0318 61.6214 24.7264C61.3162 24.4211 60.9274 24.2132 60.504 24.129C60.0807 24.0447 59.6419 24.088 59.2432 24.2532C58.8444 24.4184 58.5036 24.6983 58.2638 25.0573C58.024 25.4163 57.896 25.8384 57.896 26.2701C57.8967 26.8489 58.1268 27.4038 58.5359 27.8131C58.945 28.2223 59.4997 28.4526 60.0783 28.4532ZM58.3895 26.8488L60.015 26.4875L61.1919 27.6648C60.9685 27.8438 60.7052 27.9663 60.4245 28.0221C60.1437 28.0778 59.8537 28.0652 59.5788 27.9851C59.304 27.9051 59.0525 27.7601 58.8455 27.5623C58.6385 27.3645 58.4821 27.1198 58.3896 26.8488H58.3895ZM61.8638 26.2701C61.8641 26.6752 61.726 27.0683 61.4725 27.3842L60.2767 26.1879V24.4953C60.7129 24.5446 61.1158 24.7527 61.4084 25.0801C61.7011 25.4074 61.8632 25.831 61.8638 26.2701ZM59.8799 24.4953V26.1109L58.3031 26.4614C58.2523 25.9917 58.3897 25.5209 58.6853 25.1523C58.9809 24.7838 59.4105 24.5475 59.8799 24.4953Z" fill="url(#paint17_linear)"/>
<path d="M62.062 30.2391H59.0861V28.8499C59.0861 28.7972 59.0652 28.7468 59.028 28.7096C58.9908 28.6723 58.9403 28.6514 58.8877 28.6514H58.0941C58.0415 28.6514 57.9911 28.6723 57.9539 28.7096C57.9167 28.7468 57.8958 28.7972 57.8958 28.8499V30.2391H57.499V28.056C57.499 28.0034 57.4781 27.9529 57.4409 27.9157C57.4037 27.8785 57.3532 27.8576 57.3006 27.8576H56.507C56.4544 27.8576 56.4039 27.8785 56.3667 27.9157C56.3295 27.9529 56.3086 28.0034 56.3086 28.056V30.2391H55.9118V27.2622C55.9118 27.2095 55.8909 27.1591 55.8537 27.1218C55.8165 27.0846 55.7661 27.0637 55.7134 27.0637H54.9199C54.8673 27.0637 54.8168 27.0846 54.7796 27.1218C54.7424 27.1591 54.7215 27.2095 54.7215 27.2622V30.2391H54.5231C54.4705 30.2391 54.42 30.26 54.3828 30.2973C54.3456 30.3345 54.3247 30.385 54.3247 30.4376C54.3247 30.4902 54.3456 30.5407 54.3828 30.5779C54.42 30.6151 54.4705 30.6361 54.5231 30.6361H62.062C62.1146 30.6361 62.165 30.6151 62.2023 30.5779C62.2395 30.5407 62.2604 30.4902 62.2604 30.4376C62.2604 30.385 62.2395 30.3345 62.2023 30.2973C62.165 30.26 62.1146 30.2391 62.062 30.2391ZM55.5151 30.2391H55.1183V27.4606H55.5151V30.2391ZM57.1022 30.2391H56.7054V28.2545H57.1022V30.2391ZM58.6893 30.2391H58.2925V29.0483H58.6893V30.2391Z" fill="url(#paint18_linear)"/>
<path d="M54.5231 25.0788H57.1022C57.1548 25.0788 57.2053 25.0579 57.2425 25.0207C57.2797 24.9835 57.3006 24.933 57.3006 24.8803C57.3006 24.8277 57.2797 24.7772 57.2425 24.74C57.2053 24.7028 57.1548 24.6819 57.1022 24.6819H54.5231C54.4705 24.6819 54.42 24.7028 54.3828 24.74C54.3456 24.7772 54.3247 24.8277 54.3247 24.8803C54.3247 24.933 54.3456 24.9835 54.3828 25.0207C54.42 25.0579 54.4705 25.0788 54.5231 25.0788Z" fill="url(#paint19_linear)"/>
<path d="M54.5231 24.4834H57.1022C57.1548 24.4834 57.2053 24.4624 57.2425 24.4252C57.2797 24.388 57.3006 24.3375 57.3006 24.2849C57.3006 24.2323 57.2797 24.1818 57.2425 24.1446C57.2053 24.1073 57.1548 24.0864 57.1022 24.0864H54.5231C54.4705 24.0864 54.42 24.1073 54.3828 24.1446C54.3456 24.1818 54.3247 24.2323 54.3247 24.2849C54.3247 24.3375 54.3456 24.388 54.3828 24.4252C54.42 24.4624 54.4705 24.4834 54.5231 24.4834Z" fill="url(#paint20_linear)"/>
<path d="M54.5231 25.6743H55.5151C55.5677 25.6743 55.6181 25.6534 55.6553 25.6161C55.6925 25.5789 55.7134 25.5284 55.7134 25.4758C55.7134 25.4232 55.6925 25.3727 55.6553 25.3355C55.6181 25.2983 55.5677 25.2773 55.5151 25.2773H54.5231C54.4705 25.2773 54.42 25.2983 54.3828 25.3355C54.3456 25.3727 54.3247 25.4232 54.3247 25.4758C54.3247 25.5284 54.3456 25.5789 54.3828 25.6161C54.42 25.6534 54.4705 25.6743 54.5231 25.6743Z" fill="url(#paint21_linear)"/>
</g>
<path d="M137.8 21.2305C137.161 21.2305 136.651 21.7467 136.651 22.3796V35.0942C136.651 35.7276 137.161 36.2433 137.8 36.2433H143.447C144.08 36.2433 144.596 35.7276 144.596 35.0942V22.3796C144.596 21.7467 144.08 21.2305 143.447 21.2305H137.8ZM143.447 36.6843H137.8C136.922 36.6843 136.206 35.9725 136.206 35.0942V22.3796C136.206 21.5018 136.922 20.7853 137.8 20.7853H143.447C144.325 20.7853 145.036 21.5018 145.036 22.3796V35.0942C145.036 35.9725 144.325 36.6843 143.447 36.6843Z" fill="url(#paint22_linear)"/>
<path d="M137.281 34.1411H143.967V22.8562H137.281V34.1411ZM144.413 34.5873H136.835V22.4147H144.413V34.5873Z" fill="url(#paint23_linear)"/>
<path d="M140.621 35.0249C140.425 35.0249 140.263 35.1856 140.263 35.3827C140.263 35.5841 140.425 35.7458 140.621 35.7458C140.822 35.7458 140.984 35.5841 140.984 35.3827C140.984 35.1856 140.822 35.0249 140.621 35.0249ZM140.621 36.191C140.18 36.191 139.818 35.8285 139.818 35.3827C139.818 34.9408 140.18 34.5792 140.621 34.5792C141.066 34.5792 141.429 34.9408 141.429 35.3827C141.429 35.8285 141.066 36.191 140.621 36.191Z" fill="url(#paint24_linear)"/>
<path d="M138.051 25.8086H140.554V23.7335H138.051V25.8086ZM140.995 26.2501H137.606V23.2872H140.995V26.2501Z" fill="url(#paint25_linear)"/>
<path d="M143.451 23.7335H141.381C141.259 23.7335 141.163 23.6329 141.163 23.51C141.163 23.3881 141.259 23.2879 141.381 23.2879H143.451C143.574 23.2879 143.67 23.3881 143.67 23.51C143.67 23.6329 143.574 23.7335 143.451 23.7335Z" fill="url(#paint26_linear)"/>
<path d="M143.451 24.5731H141.381C141.259 24.5731 141.163 24.4729 141.163 24.3504C141.163 24.2285 141.259 24.1283 141.381 24.1283H143.451C143.574 24.1283 143.67 24.2285 143.67 24.3504C143.67 24.4729 143.574 24.5731 143.451 24.5731Z" fill="url(#paint27_linear)"/>
<path d="M143.451 25.4116H141.381C141.259 25.4116 141.163 25.3114 141.163 25.189C141.163 25.0671 141.259 24.9707 141.381 24.9707H143.451C143.574 24.9707 143.67 25.0671 143.67 25.189C143.67 25.3114 143.574 25.4116 143.451 25.4116Z" fill="url(#paint28_linear)"/>
<path d="M143.451 26.2513H141.381C141.259 26.2513 141.163 26.1507 141.163 26.0282C141.163 25.9058 141.259 25.8094 141.381 25.8094H143.451C143.574 25.8094 143.67 25.9058 143.67 26.0282C143.67 26.1507 143.574 26.2513 143.451 26.2513Z" fill="url(#paint29_linear)"/>
<path d="M143.452 27.0898H137.783C137.661 27.0898 137.564 26.9939 137.564 26.8715C137.564 26.7491 137.661 26.6489 137.783 26.6489H143.452C143.575 26.6489 143.671 26.7491 143.671 26.8715C143.671 26.9939 143.575 27.0898 143.452 27.0898Z" fill="url(#paint30_linear)"/>
<path d="M143.452 27.9283H137.783C137.661 27.9283 137.564 27.8329 137.564 27.71C137.564 27.5875 137.661 27.4864 137.783 27.4864H143.452C143.575 27.4864 143.671 27.5875 143.671 27.71C143.671 27.8329 143.575 27.9283 143.452 27.9283Z" fill="url(#paint31_linear)"/>
<path d="M143.452 28.7716H137.783C137.661 28.7716 137.564 28.6709 137.564 28.5476C137.564 28.4266 137.661 28.3254 137.783 28.3254H143.452C143.575 28.3254 143.671 28.4266 143.671 28.5476C143.671 28.6709 143.575 28.7716 143.452 28.7716Z" fill="url(#paint32_linear)"/>
<path d="M143.452 29.6113H137.783C137.661 29.6113 137.564 29.5102 137.564 29.3877C137.564 29.2658 137.661 29.1655 137.783 29.1655H143.452C143.575 29.1655 143.671 29.2658 143.671 29.3877C143.671 29.5102 143.575 29.6113 143.452 29.6113Z" fill="url(#paint33_linear)"/>
<path d="M143.452 30.4486H137.783C137.661 30.4486 137.564 30.3489 137.564 30.226C137.564 30.104 137.661 30.0028 137.783 30.0028H143.452C143.575 30.0028 143.671 30.104 143.671 30.226C143.671 30.3489 143.575 30.4486 143.452 30.4486Z" fill="url(#paint34_linear)"/>
<path d="M143.452 31.2896H137.783C137.661 31.2896 137.564 31.1889 137.564 31.0655C137.564 30.9435 137.661 30.848 137.783 30.848H143.452C143.575 30.848 143.671 30.9435 143.671 31.0655C143.671 31.1889 143.575 31.2896 143.452 31.2896Z" fill="url(#paint35_linear)"/>
<path d="M143.452 32.1267H137.783C137.661 32.1267 137.564 32.0308 137.564 31.9083C137.564 31.7812 137.661 31.6847 137.783 31.6847H143.452C143.575 31.6847 143.671 31.7812 143.671 31.9083C143.671 32.0308 143.575 32.1267 143.452 32.1267Z" fill="url(#paint36_linear)"/>
<path d="M143.452 32.9664H137.783C137.661 32.9664 137.564 32.8705 137.564 32.7481C137.564 32.6257 137.661 32.5255 137.783 32.5255H143.452C143.575 32.5255 143.671 32.6257 143.671 32.7481C143.671 32.8705 143.575 32.9664 143.452 32.9664Z" fill="url(#paint37_linear)"/>
<path d="M143.452 33.8049H137.783C137.661 33.8049 137.564 33.7085 137.564 33.5861C137.564 33.4636 137.661 33.3634 137.783 33.3634H143.452C143.575 33.3634 143.671 33.4636 143.671 33.5861C143.671 33.7085 143.575 33.8049 143.452 33.8049Z" fill="url(#paint38_linear)"/>
<path d="M48.6438 106.473C48.2141 106.473 47.7862 106.431 47.3601 106.349C46.9376 106.27 46.5508 106.136 46.1999 105.946C45.849 105.756 45.5679 105.499 45.3567 105.173C45.1454 104.847 45.0398 104.44 45.0398 103.953C45.0398 103.395 45.2188 102.901 45.5769 102.471C45.935 102.038 46.3951 101.68 46.9573 101.397L47.7092 101.832C47.3547 101.968 47.0145 102.14 46.6887 102.348C46.3629 102.555 46.0961 102.788 45.8884 103.046C45.6843 103.304 45.5823 103.581 45.5823 103.878C45.5823 104.197 45.6718 104.467 45.8508 104.689C46.0298 104.911 46.2698 105.09 46.5705 105.226C46.8749 105.366 47.2151 105.468 47.591 105.533C47.967 105.597 48.3502 105.629 48.7405 105.629C49.0162 105.629 49.2883 105.615 49.5569 105.586C49.829 105.558 50.085 105.516 50.3249 105.463L50.1584 106.328C49.9364 106.374 49.6965 106.41 49.4387 106.435C49.1809 106.46 48.9159 106.473 48.6438 106.473ZM47.0056 101.612C46.8087 101.49 46.5849 101.347 46.3342 101.182C46.0871 101.014 45.824 100.808 45.5447 100.564L45.6306 99.7426C45.9027 99.6316 46.2107 99.5492 46.5544 99.4955C46.9018 99.4418 47.2598 99.4149 47.6286 99.4149C48.0297 99.4149 48.4289 99.4454 48.8264 99.5062C49.2274 99.5671 49.598 99.6566 49.9382 99.7748L49.8308 100.516C49.6231 100.727 49.3939 100.919 49.1433 101.091C48.8962 101.263 48.6474 101.424 48.3967 101.574L48.3215 101.504C48.7047 101.612 49.0394 101.685 49.3259 101.724C49.6159 101.764 49.9382 101.784 50.2927 101.784H50.615V102.616H50.2981C49.983 102.616 49.6965 102.598 49.4387 102.562C49.1845 102.523 48.9177 102.457 48.6384 102.364C48.3591 102.267 48.0279 102.136 47.6448 101.972L47.0056 101.612ZM49.1433 100.253C48.9428 100.221 48.7208 100.196 48.4773 100.178C48.2374 100.156 47.9903 100.145 47.7361 100.145C47.489 100.145 47.2383 100.154 46.9841 100.172C46.7335 100.19 46.4864 100.222 46.2429 100.269L46.2268 100.366C46.3879 100.462 46.5687 100.568 46.7693 100.682C46.9734 100.797 47.1685 100.905 47.3547 101.005C47.5409 101.105 47.6949 101.186 47.8166 101.246L47.5857 101.289C47.8256 101.157 48.0816 101.016 48.3537 100.865C48.6295 100.711 48.8926 100.532 49.1433 100.328V100.253ZM50.615 102.616V101.784C50.7152 101.784 50.7797 101.816 50.8083 101.88C50.8406 101.945 50.8567 102.052 50.8567 102.203C50.8567 102.335 50.8406 102.437 50.8083 102.509C50.7761 102.58 50.7116 102.616 50.615 102.616ZM50.615 102.616V101.784H52.5647C52.8225 101.784 53.0284 101.769 53.1824 101.741C53.3399 101.712 53.4527 101.658 53.5207 101.579C53.5923 101.497 53.6282 101.379 53.6282 101.225V100.87C53.6282 100.713 53.612 100.527 53.5798 100.312C53.5476 100.097 53.4921 99.8876 53.4133 99.6835C53.3345 99.4794 53.2253 99.3111 53.0857 99.1786C52.9496 99.0425 52.7741 98.9745 52.5593 98.9745C52.3194 98.9745 52.1046 99.064 51.9148 99.243C51.7286 99.4221 51.6355 99.6298 51.6355 99.8661C51.6355 100.016 51.7089 100.133 51.8557 100.215C52.0061 100.294 52.1977 100.349 52.4304 100.382C52.6667 100.41 52.9138 100.425 53.1716 100.425C53.3506 100.425 53.5082 100.419 53.6443 100.409C53.7839 100.398 53.8842 100.391 53.945 100.387L53.8 101.128C53.7033 101.146 53.5709 101.164 53.4026 101.182C53.2379 101.196 53.0445 101.203 52.8225 101.203C52.3677 101.203 52.0186 101.143 51.7751 101.021C51.5316 100.896 51.3633 100.74 51.2702 100.554C51.1771 100.367 51.1306 100.178 51.1306 99.9843C51.1306 99.6799 51.1986 99.3899 51.3347 99.1141C51.4708 98.8384 51.6516 98.6128 51.8772 98.4374C52.1063 98.2619 52.3552 98.1742 52.6238 98.1742C52.9174 98.1742 53.1627 98.2548 53.3596 98.4159C53.5601 98.5734 53.7177 98.7793 53.8323 99.0336C53.9504 99.2878 54.0346 99.5599 54.0847 99.85C54.1384 100.14 54.1653 100.416 54.1653 100.677C54.1653 100.906 54.1456 101.121 54.1062 101.322C54.0668 101.519 54.0131 101.694 53.945 101.848C53.8519 102.056 53.7445 102.211 53.6228 102.315C53.501 102.416 53.3417 102.487 53.1448 102.53C53.0194 102.559 52.8314 102.58 52.5808 102.595C52.3301 102.609 51.9488 102.616 51.4367 102.616H50.615ZM50.615 102.616C50.5183 102.616 50.4538 102.58 50.4216 102.509C50.3894 102.437 50.3733 102.335 50.3733 102.203C50.3733 102.052 50.3894 101.945 50.4216 101.88C50.4503 101.816 50.5147 101.784 50.615 101.784V102.616ZM53.279 97.6425L52.5056 97.0677L52.9675 96.4769L53.7356 97.057L53.279 97.6425ZM52.0437 97.6425L51.2702 97.0677L51.7322 96.4769L52.5002 97.057L52.0437 97.6425ZM55.551 105.173L55.2824 104.383C55.6513 104.258 56.0075 104.116 56.3513 103.959C56.695 103.801 56.9815 103.628 57.2107 103.438C57.5473 103.159 57.7585 102.842 57.8445 102.487L58.0486 102.616H56.9475C56.6073 102.616 56.3119 102.571 56.0613 102.482C55.8142 102.389 55.6208 102.247 55.4812 102.057C55.3451 101.864 55.2753 101.617 55.2717 101.316C55.2681 101.03 55.3308 100.742 55.4597 100.452C55.5886 100.161 55.7676 99.9198 55.9968 99.7264C56.226 99.5295 56.4909 99.431 56.7917 99.431C57.0603 99.431 57.293 99.508 57.49 99.662C57.6869 99.8124 57.848 100.011 57.9734 100.258C58.1023 100.505 58.199 100.777 58.2634 101.075C58.3279 101.372 58.3601 101.665 58.3601 101.955L58.113 101.784H58.9831V102.616H58.0647L58.3332 102.439C58.2938 102.743 58.2186 103.019 58.1076 103.266C57.9966 103.513 57.857 103.735 57.6887 103.932C57.413 104.251 57.0907 104.507 56.7219 104.7C56.3567 104.897 55.9664 105.055 55.551 105.173ZM57.8659 101.912C57.8659 101.773 57.8409 101.608 57.7908 101.418C57.7406 101.225 57.6672 101.039 57.5705 100.86C57.4739 100.677 57.3539 100.527 57.2107 100.409C57.0674 100.287 56.9027 100.226 56.7165 100.226C56.4802 100.226 56.2636 100.317 56.0666 100.5C55.8733 100.679 55.7766 100.894 55.7766 101.144C55.7766 101.417 55.9019 101.596 56.1526 101.682C56.4068 101.767 56.747 101.81 57.1731 101.81C57.3127 101.81 57.4595 101.807 57.6135 101.8C57.7711 101.793 57.934 101.787 58.1023 101.784L57.8659 101.912ZM58.9831 102.616V101.784C59.0834 101.784 59.1478 101.816 59.1765 101.88C59.2087 101.945 59.2248 102.052 59.2248 102.203C59.2248 102.335 59.2087 102.437 59.1765 102.509C59.1443 102.58 59.0798 102.616 58.9831 102.616ZM62.9577 102.681C62.7286 102.681 62.4529 102.641 62.1306 102.562C61.8119 102.484 61.4986 102.364 61.1907 102.203C60.8827 102.041 60.6303 101.839 60.4333 101.596L60.7556 101.434C60.6553 101.75 60.5425 101.993 60.4172 102.165C60.2919 102.333 60.1433 102.451 59.9714 102.519C59.7995 102.584 59.5936 102.616 59.3537 102.616H58.9831V101.784H59.2732C59.5095 101.784 59.6993 101.742 59.8425 101.66C59.9893 101.578 60.1075 101.456 60.197 101.295C60.2865 101.134 60.3671 100.937 60.4387 100.704C60.5748 100.26 60.7574 99.9108 60.9865 99.6566C61.2193 99.4024 61.5111 99.2753 61.862 99.2753C62.1986 99.2753 62.4922 99.3755 62.7429 99.576C62.9971 99.773 63.203 100.022 63.3606 100.323C63.5181 100.62 63.6273 100.915 63.6882 101.209C63.7419 101.463 63.7974 101.622 63.8547 101.687C63.9156 101.751 64.0337 101.784 64.2092 101.784H64.6282V102.616H64.3489C64.202 102.616 64.0713 102.604 63.9568 102.578C63.8458 102.55 63.7437 102.498 63.6506 102.423C63.5611 102.348 63.4734 102.237 63.3874 102.09L63.7097 101.961C63.6524 102.186 63.5915 102.351 63.5271 102.455C63.4626 102.555 63.3838 102.618 63.2907 102.643C63.2012 102.668 63.0902 102.681 62.9577 102.681ZM63.0598 101.859C63.1207 101.859 63.1672 101.848 63.1994 101.827C63.2352 101.801 63.2532 101.753 63.2532 101.682C63.2532 101.653 63.2496 101.626 63.2424 101.601C63.2388 101.572 63.2352 101.54 63.2317 101.504C63.1923 101.297 63.1117 101.085 62.99 100.87C62.8682 100.652 62.7107 100.469 62.5173 100.323C62.324 100.172 62.0984 100.097 61.8406 100.097C61.6185 100.097 61.4377 100.158 61.2981 100.28C61.1584 100.401 61.0528 100.552 60.9812 100.731C60.9096 100.91 60.863 101.087 60.8415 101.263L60.7878 100.849C60.8487 100.978 60.9615 101.103 61.1262 101.225C61.2945 101.343 61.4896 101.451 61.7116 101.547C61.9337 101.64 62.1628 101.716 62.3991 101.773C62.6355 101.83 62.8557 101.859 63.0598 101.859ZM58.9831 102.616C58.8865 102.616 58.822 102.58 58.7898 102.509C58.7575 102.437 58.7414 102.335 58.7414 102.203C58.7414 102.052 58.7575 101.945 58.7898 101.88C58.8184 101.816 58.8829 101.784 58.9831 101.784V102.616ZM64.6282 102.616V101.784C64.7284 101.784 64.7929 101.816 64.8215 101.88C64.8537 101.945 64.8699 102.052 64.8699 102.203C64.8699 102.335 64.8537 102.437 64.8215 102.509C64.7893 102.58 64.7248 102.616 64.6282 102.616ZM64.6335 102.616V101.784H65.4446C65.5985 101.784 65.6988 101.762 65.7453 101.719C65.7919 101.676 65.8062 101.571 65.7883 101.402C65.7632 101.144 65.7364 100.887 65.7077 100.629C65.6791 100.367 65.6487 100.102 65.6164 99.8339C65.5842 99.5617 65.5484 99.2806 65.509 98.9906C65.4732 98.7006 65.4338 98.3944 65.3908 98.0721C65.3479 97.7499 65.3013 97.4061 65.2512 97.0409L65.9441 96.9926C65.987 97.3864 66.03 97.8036 66.073 98.244C66.1159 98.6809 66.1553 99.1034 66.1911 99.5116C66.2305 99.9162 66.2628 100.271 66.2878 100.575C66.3129 100.876 66.3308 101.089 66.3415 101.214C66.3559 101.436 66.3487 101.63 66.32 101.794C66.295 101.955 66.2252 102.124 66.1106 102.299C66.0282 102.425 65.9297 102.509 65.8152 102.552C65.7042 102.595 65.5466 102.616 65.3425 102.616H64.6335ZM64.6335 102.616C64.5368 102.616 64.4724 102.58 64.4402 102.509C64.4079 102.437 64.3918 102.335 64.3918 102.203C64.3918 102.052 64.4079 101.945 64.4402 101.88C64.4688 101.816 64.5333 101.784 64.6335 101.784V102.616ZM67.7595 102.616C67.6807 101.746 67.584 100.833 67.4695 99.8768C67.3549 98.9172 67.2331 97.9719 67.1042 97.0409L67.7971 96.9872C67.9045 97.9862 68.0012 98.9351 68.0871 99.8339C68.1731 100.729 68.2518 101.656 68.3235 102.616H67.7595Z" fill="#DCEAFF"/>
<path d="M131.78 104.953C131.315 104.953 130.931 104.863 130.631 104.684C130.33 104.509 130.106 104.263 129.959 103.948C129.812 103.637 129.739 103.279 129.739 102.874C129.739 102.362 129.852 101.798 130.077 101.182L130.534 101.333C130.369 101.794 130.287 102.206 130.287 102.568C130.287 103.015 130.416 103.372 130.674 103.637C130.931 103.905 131.329 104.04 131.866 104.04C132.199 104.04 132.494 103.984 132.752 103.873C133.01 103.766 133.203 103.613 133.332 103.417C133.404 103.302 133.452 103.171 133.477 103.024C133.502 102.881 133.515 102.727 133.515 102.562C133.515 102.437 133.51 102.306 133.499 102.17C133.488 102.034 133.474 101.896 133.456 101.757C133.395 101.252 133.338 100.785 133.284 100.355C133.234 99.9253 133.185 99.5278 133.139 99.1626C133.092 98.7974 133.048 98.4626 133.005 98.1582C132.965 97.8538 132.928 97.5745 132.892 97.3203L133.585 97.2666C133.617 97.5817 133.653 97.9344 133.692 98.3247C133.735 98.7114 133.776 99.1089 133.816 99.5171C133.855 99.9253 133.891 100.316 133.923 100.688C133.959 101.057 133.986 101.383 134.004 101.666C134.025 101.945 134.036 102.151 134.036 102.283C134.036 102.598 134.011 102.878 133.961 103.121C133.914 103.368 133.843 103.581 133.746 103.76C133.574 104.125 133.311 104.416 132.956 104.63C132.605 104.845 132.213 104.953 131.78 104.953ZM135.502 102.896C135.423 102.025 135.327 101.112 135.212 100.156C135.098 99.1966 134.976 98.2513 134.847 97.3203L135.54 97.2666C135.647 98.2656 135.744 99.2145 135.83 100.113C135.916 101.008 135.995 101.936 136.066 102.896H135.502ZM137.291 105.452L137.022 104.663C137.391 104.537 137.747 104.396 138.091 104.238C138.435 104.081 138.721 103.907 138.95 103.717C139.287 103.438 139.498 103.121 139.584 102.767L139.788 102.896H138.687C138.347 102.896 138.052 102.851 137.801 102.761C137.554 102.668 137.361 102.527 137.221 102.337C137.085 102.144 137.015 101.896 137.011 101.596C137.008 101.309 137.071 101.021 137.199 100.731C137.328 100.441 137.507 100.199 137.737 100.006C137.966 99.8089 138.231 99.7104 138.531 99.7104C138.8 99.7104 139.033 99.7874 139.23 99.9414C139.427 100.092 139.588 100.291 139.713 100.538C139.842 100.785 139.939 101.057 140.003 101.354C140.068 101.651 140.1 101.945 140.1 102.235L139.853 102.063H140.723V102.896H139.804L140.073 102.718C140.034 103.023 139.958 103.298 139.847 103.545C139.736 103.792 139.597 104.014 139.428 104.211C139.153 104.53 138.83 104.786 138.462 104.979C138.096 105.176 137.706 105.334 137.291 105.452ZM139.606 102.192C139.606 102.052 139.581 101.888 139.53 101.698C139.48 101.504 139.407 101.318 139.31 101.139C139.214 100.957 139.094 100.806 138.95 100.688C138.807 100.566 138.642 100.505 138.456 100.505C138.22 100.505 138.003 100.597 137.806 100.779C137.613 100.958 137.516 101.173 137.516 101.424C137.516 101.696 137.642 101.875 137.892 101.961C138.147 102.047 138.487 102.09 138.913 102.09C139.052 102.09 139.199 102.086 139.353 102.079C139.511 102.072 139.674 102.067 139.842 102.063L139.606 102.192ZM140.723 102.896V102.063C140.823 102.063 140.888 102.095 140.916 102.16C140.948 102.224 140.965 102.332 140.965 102.482C140.965 102.614 140.948 102.716 140.916 102.788C140.884 102.86 140.82 102.896 140.723 102.896ZM140.723 102.896V102.063H141.115C141.62 102.063 142.121 102.013 142.619 101.913C143.12 101.809 143.62 101.669 144.117 101.494C144.619 101.315 145.118 101.111 145.616 100.881L145.573 101.069C145.562 101.066 145.498 101.044 145.38 101.005C145.265 100.962 145.143 100.919 145.014 100.876C144.889 100.829 144.807 100.799 144.767 100.785C144.302 100.62 143.946 100.504 143.698 100.436C143.451 100.368 143.215 100.333 142.989 100.333C142.732 100.333 142.506 100.398 142.313 100.527C142.119 100.652 141.944 100.858 141.786 101.145L141.426 100.892C141.573 100.473 141.797 100.146 142.098 99.9092C142.402 99.6693 142.746 99.5493 143.129 99.5493C143.365 99.5493 143.63 99.5887 143.924 99.6675C144.221 99.7427 144.633 99.8823 145.159 100.086C145.46 100.205 145.709 100.298 145.906 100.366C146.107 100.434 146.298 100.484 146.481 100.516C146.663 100.545 146.876 100.559 147.12 100.559L147.012 101.273C146.626 101.273 146.252 101.34 145.89 101.472C145.532 101.605 145.158 101.759 144.767 101.934C144.434 102.084 144.078 102.235 143.698 102.385C143.322 102.532 142.909 102.654 142.458 102.75C142.01 102.847 141.509 102.896 140.954 102.896H140.723ZM147.539 102.896C147.177 102.896 146.878 102.878 146.642 102.842C146.409 102.806 146.226 102.718 146.094 102.579C145.961 102.439 145.868 102.212 145.815 101.896L146.148 101.596C146.191 101.768 146.275 101.889 146.4 101.961C146.525 102.029 146.74 102.063 147.045 102.063H147.813V102.896H147.539ZM147.813 102.896V102.063C147.913 102.063 147.977 102.095 148.006 102.16C148.038 102.224 148.054 102.332 148.054 102.482C148.054 102.614 148.038 102.716 148.006 102.788C147.974 102.86 147.909 102.896 147.813 102.896ZM140.723 102.896C140.626 102.896 140.562 102.86 140.53 102.788C140.497 102.716 140.481 102.614 140.481 102.482C140.481 102.332 140.497 102.224 140.53 102.16C140.558 102.095 140.623 102.063 140.723 102.063V102.896ZM144.456 104.834L143.629 104.217L144.123 103.588L144.945 104.206L144.456 104.834ZM147.813 102.896V102.063H148.624C148.778 102.063 148.878 102.042 148.925 101.999C148.971 101.956 148.985 101.85 148.968 101.682C148.942 101.424 148.916 101.166 148.887 100.908C148.858 100.647 148.828 100.382 148.796 100.113C148.763 99.8411 148.728 99.5601 148.688 99.27C148.652 98.98 148.613 98.6738 148.57 98.3516C148.527 98.0293 148.481 97.6855 148.43 97.3203L149.123 97.272C149.166 97.6659 149.209 98.083 149.252 98.5234C149.295 98.9603 149.335 99.3828 149.37 99.791C149.41 100.196 149.442 100.55 149.467 100.854C149.492 101.155 149.51 101.368 149.521 101.494C149.535 101.716 149.528 101.909 149.499 102.074C149.474 102.235 149.404 102.403 149.29 102.579C149.207 102.704 149.109 102.788 148.994 102.831C148.883 102.874 148.726 102.896 148.522 102.896H147.813ZM147.813 102.896C147.716 102.896 147.652 102.86 147.619 102.788C147.587 102.716 147.571 102.614 147.571 102.482C147.571 102.332 147.587 102.224 147.619 102.16C147.648 102.095 147.712 102.063 147.813 102.063V102.896ZM150.939 102.896C150.86 102.025 150.763 101.112 150.649 100.156C150.534 99.1966 150.412 98.2513 150.283 97.3203L150.976 97.2666C151.084 98.2656 151.18 99.2145 151.266 100.113C151.352 101.008 151.431 101.936 151.503 102.896H150.939Z" fill="#DCEAFF"/>
</g>
<path d="M77.2716 156.291C75.8178 156.291 74.6111 156.166 73.6515 155.915C72.699 155.657 71.9865 155.228 71.5138 154.626C71.0483 154.024 70.8156 153.208 70.8156 152.177C70.8156 151.554 70.9087 150.809 71.0948 149.942L72.0402 150.104C71.9471 150.59 71.9005 151.038 71.9005 151.446C71.9005 152.263 72.0903 152.896 72.4698 153.348C72.8566 153.799 73.4187 154.118 74.1564 154.304C74.894 154.483 75.7999 154.576 76.8741 154.583C77.3898 154.59 77.9376 154.587 78.5177 154.572C79.1049 154.558 79.6779 154.536 80.2365 154.508C80.795 154.479 81.2999 154.443 81.7511 154.4C82.2094 154.357 82.5675 154.314 82.8253 154.271C83.0115 154.236 83.1297 154.189 83.1798 154.132C83.2299 154.067 83.2407 153.928 83.212 153.713C83.1476 153.269 83.0008 152.717 82.7716 152.059C82.5496 151.4 82.3133 150.744 82.0626 150.093L83.3517 149.985C83.6167 150.608 83.8422 151.249 84.0284 151.908C84.2146 152.56 84.3077 153.158 84.3077 153.702C84.3077 153.938 84.2791 154.207 84.2218 154.508C84.1717 154.809 84.0965 155.059 83.9962 155.26C83.8816 155.489 83.7599 155.636 83.631 155.7C83.5021 155.765 83.212 155.836 82.7609 155.915C82.3097 155.994 81.7618 156.058 81.1173 156.108C80.4728 156.166 79.8103 156.209 79.13 156.237C78.4568 156.273 77.8374 156.291 77.2716 156.291ZM78.7433 150.329L77.1964 149.18L78.1202 147.998L79.6564 149.158L78.7433 150.329ZM76.2726 150.329L74.7257 149.18L75.6495 147.998L77.1857 149.158L76.2726 150.329ZM89.5607 156.033C89.1238 156.033 88.7586 155.99 88.465 155.904C88.1785 155.818 87.9386 155.686 87.7452 155.507C87.5734 155.342 87.4301 155.138 87.3156 154.895C87.2081 154.651 87.1079 154.286 87.0148 153.799C86.9288 153.312 86.8286 152.621 86.714 151.726C86.5922 150.687 86.4812 149.796 86.381 149.051C86.2879 148.299 86.1984 147.601 86.1124 146.956C86.0265 146.312 85.9334 145.62 85.8331 144.883L87.2189 144.775C87.269 145.27 87.3227 145.825 87.38 146.44C87.4445 147.056 87.5161 147.79 87.5948 148.643C87.6808 149.495 87.781 150.522 87.8956 151.726C87.9672 152.535 88.0389 153.093 88.1105 153.401C88.1892 153.709 88.3003 153.935 88.4435 154.078C88.6368 154.271 89.0092 154.368 89.5607 154.368V156.033ZM89.5607 156.033V154.368C89.7612 154.368 89.8901 154.433 89.9474 154.562C90.0118 154.69 90.0441 154.905 90.0441 155.206C90.0441 155.471 90.0118 155.675 89.9474 155.818C89.8829 155.962 89.754 156.033 89.5607 156.033ZM105.062 156.033C104.811 156.033 104.385 156.03 103.783 156.022C103.189 156.008 102.476 155.983 101.646 155.947C100.815 155.911 99.9233 155.851 98.9708 155.765L102.935 154.368H105.062V156.033ZM97.6603 156.162C97.4096 156.162 97.0623 156.151 96.6183 156.13C96.1814 156.108 95.7374 156.087 95.2863 156.065C94.8422 156.044 94.4842 156.033 94.212 156.033H89.5714V154.368H92.4718C92.6795 154.368 92.8084 154.332 92.8585 154.261C92.9158 154.182 92.8872 153.996 92.7726 153.702L91.3654 150.318L92.7296 150.211L94.1046 153.917L93.6964 153.734C94.6919 152.46 95.7517 151.432 96.8761 150.651C98.0004 149.871 99.0675 149.48 100.077 149.48C100.679 149.48 101.252 149.634 101.796 149.942C102.34 150.243 102.784 150.698 103.128 151.307C103.472 151.908 103.644 152.66 103.644 153.562C103.644 153.842 103.608 154.121 103.536 154.4C103.472 154.673 103.386 154.905 103.278 155.099C103.164 155.313 103.035 155.46 102.892 155.539C102.748 155.618 102.512 155.693 102.183 155.765C101.739 155.865 101.134 155.954 100.367 156.033C99.6082 156.119 98.7059 156.162 97.6603 156.162ZM94.1798 154.776L94.1154 154.411C94.7957 154.44 95.4438 154.465 96.0597 154.486C96.6827 154.508 97.2771 154.519 97.8429 154.519C98.7166 154.519 99.5223 154.49 100.26 154.433C100.998 154.368 101.61 154.264 102.097 154.121C102.34 154.049 102.494 153.971 102.559 153.885C102.623 153.792 102.655 153.699 102.655 153.605C102.655 153.19 102.523 152.803 102.258 152.445C101.993 152.087 101.624 151.797 101.151 151.575C100.679 151.353 100.138 151.242 99.5294 151.242C98.756 151.242 97.9109 151.529 96.9943 152.102C96.0848 152.674 95.1466 153.566 94.1798 154.776ZM89.5714 156.033C89.3781 156.033 89.2491 155.962 89.1847 155.818C89.1202 155.675 89.088 155.471 89.088 155.206C89.088 154.905 89.1202 154.69 89.1847 154.562C89.242 154.433 89.3709 154.368 89.5714 154.368V156.033ZM105.062 156.033V154.368C105.262 154.368 105.391 154.433 105.448 154.562C105.513 154.69 105.545 154.905 105.545 155.206C105.545 155.471 105.513 155.675 105.448 155.818C105.384 155.962 105.255 156.033 105.062 156.033ZM105.062 156.033V154.368H107.661C107.855 154.368 107.976 154.332 108.026 154.261C108.077 154.182 108.077 154.014 108.026 153.756L107.436 150.587L108.65 150.49C108.85 151.328 109.011 152.091 109.133 152.778C109.262 153.459 109.341 154.107 109.369 154.723L108.972 154.368H110.497V156.033H110.186C109.828 156.033 109.495 155.997 109.187 155.926C108.879 155.854 108.603 155.761 108.359 155.646L109.154 155.689C108.868 155.804 108.46 155.89 107.93 155.947C107.407 156.005 106.795 156.033 106.093 156.033H105.062ZM110.497 156.033V154.368C110.698 154.368 110.827 154.433 110.884 154.562C110.948 154.69 110.981 154.905 110.981 155.206C110.981 155.471 110.948 155.675 110.884 155.818C110.819 155.962 110.691 156.033 110.497 156.033ZM105.062 156.033C104.868 156.033 104.739 155.962 104.675 155.818C104.61 155.675 104.578 155.471 104.578 155.206C104.578 154.905 104.61 154.69 104.675 154.562C104.732 154.433 104.861 154.368 105.062 154.368V156.033ZM107.758 149.169L106.104 147.934L107.092 146.677L108.735 147.912L107.758 149.169ZM118.446 156.162C117.988 156.162 117.437 156.083 116.792 155.926C116.155 155.768 115.528 155.528 114.912 155.206C114.296 154.884 113.791 154.479 113.398 153.992L114.042 153.67C113.842 154.3 113.616 154.787 113.365 155.131C113.115 155.467 112.818 155.704 112.474 155.84C112.13 155.969 111.718 156.033 111.238 156.033H110.497V154.368H111.077C111.55 154.368 111.929 154.286 112.216 154.121C112.51 153.956 112.746 153.713 112.925 153.391C113.104 153.068 113.265 152.674 113.408 152.209C113.68 151.321 114.046 150.623 114.504 150.114C114.97 149.606 115.553 149.352 116.255 149.352C116.928 149.352 117.515 149.552 118.017 149.953C118.525 150.347 118.937 150.845 119.252 151.446C119.567 152.041 119.786 152.632 119.907 153.219C120.015 153.727 120.126 154.046 120.24 154.175C120.362 154.304 120.598 154.368 120.949 154.368H121.787V156.033H121.229C120.935 156.033 120.674 156.008 120.444 155.958C120.222 155.901 120.018 155.797 119.832 155.646C119.653 155.496 119.478 155.274 119.306 154.98L119.95 154.723C119.836 155.174 119.714 155.503 119.585 155.711C119.456 155.911 119.299 156.037 119.112 156.087C118.933 156.137 118.711 156.162 118.446 156.162ZM118.651 154.519C118.772 154.519 118.865 154.497 118.93 154.454C119.001 154.404 119.037 154.307 119.037 154.164C119.037 154.107 119.03 154.053 119.016 154.003C119.009 153.946 119.001 153.881 118.994 153.81C118.915 153.394 118.754 152.972 118.511 152.542C118.267 152.105 117.952 151.74 117.566 151.446C117.179 151.146 116.728 150.995 116.212 150.995C115.768 150.995 115.406 151.117 115.127 151.36C114.848 151.604 114.637 151.905 114.493 152.263C114.35 152.621 114.257 152.975 114.214 153.326L114.107 152.499C114.228 152.757 114.454 153.007 114.783 153.251C115.12 153.487 115.51 153.702 115.954 153.896C116.398 154.082 116.857 154.232 117.329 154.347C117.802 154.461 118.242 154.519 118.651 154.519ZM110.497 156.033C110.304 156.033 110.175 155.962 110.11 155.818C110.046 155.675 110.014 155.471 110.014 155.206C110.014 154.905 110.046 154.69 110.11 154.562C110.168 154.433 110.297 154.368 110.497 154.368V156.033ZM121.787 156.033V154.368C121.988 154.368 122.117 154.433 122.174 154.562C122.238 154.69 122.271 154.905 122.271 155.206C122.271 155.471 122.238 155.675 122.174 155.818C122.109 155.962 121.981 156.033 121.787 156.033ZM121.798 156.033V154.368H123.42C123.728 154.368 123.929 154.325 124.022 154.239C124.115 154.153 124.143 153.942 124.108 153.605C124.057 153.09 124.004 152.574 123.946 152.059C123.889 151.536 123.828 151.006 123.764 150.469C123.699 149.924 123.628 149.362 123.549 148.782C123.477 148.202 123.399 147.59 123.313 146.945C123.227 146.301 123.134 145.613 123.033 144.883L124.419 144.786C124.505 145.574 124.591 146.408 124.677 147.289C124.763 148.163 124.842 149.008 124.913 149.824C124.992 150.633 125.056 151.342 125.107 151.951C125.157 152.553 125.193 152.979 125.214 153.229C125.243 153.674 125.228 154.06 125.171 154.39C125.121 154.712 124.981 155.049 124.752 155.399C124.587 155.65 124.39 155.818 124.161 155.904C123.939 155.99 123.624 156.033 123.216 156.033H121.798ZM121.798 156.033C121.605 156.033 121.476 155.962 121.411 155.818C121.347 155.675 121.315 155.471 121.315 155.206C121.315 154.905 121.347 154.69 121.411 154.562C121.469 154.433 121.597 154.368 121.798 154.368V156.033ZM128.05 156.033C127.892 154.293 127.699 152.467 127.47 150.555C127.241 148.635 126.997 146.745 126.739 144.883L128.125 144.775C128.34 146.773 128.533 148.671 128.705 150.469C128.877 152.259 129.035 154.114 129.178 156.033H128.05Z" fill="#DCEAFF"/>
<defs>
<linearGradient id="paint0_linear" x1="118.536" y1="80.4137" x2="164.036" y2="120.699" gradientUnits="userSpaceOnUse">
<stop stop-color="white"/>
<stop offset="1" stop-color="#F2F2F2"/>
</linearGradient>
<linearGradient id="paint1_linear" x1="125.385" y1="147.907" x2="218.944" y2="61.4709" gradientUnits="userSpaceOnUse">
<stop stop-color="#115ED5"/>
<stop offset="1" stop-color="#3FD9E3"/>
</linearGradient>
<linearGradient id="paint2_linear" x1="122.072" y1="83.9741" x2="160.293" y2="117.814" gradientUnits="userSpaceOnUse">
<stop stop-color="white"/>
<stop offset="1" stop-color="#F2F2F2"/>
</linearGradient>
<linearGradient id="paint3_linear" x1="122.559" y1="84.404" x2="159.808" y2="117.384" gradientUnits="userSpaceOnUse">
<stop stop-color="#F2F2F2"/>
<stop offset="1" stop-color="white"/>
</linearGradient>
<linearGradient id="paint4_linear" x1="128.693" y1="138.075" x2="202.159" y2="70.2026" gradientUnits="userSpaceOnUse">
<stop stop-color="#115ED5"/>
<stop offset="1" stop-color="#3FD9E3"/>
</linearGradient>
<linearGradient id="paint5_linear" x1="116.485" y1="156.22" x2="219.919" y2="84.3654" gradientUnits="userSpaceOnUse">
<stop stop-color="#115ED5"/>
<stop offset="1" stop-color="#3FD9E3"/>
</linearGradient>
<linearGradient id="paint6_linear" x1="34.5747" y1="80.2567" x2="80.0745" y2="120.542" gradientUnits="userSpaceOnUse">
<stop stop-color="white"/>
<stop offset="1" stop-color="#F2F2F2"/>
</linearGradient>
<linearGradient id="paint7_linear" x1="41.4226" y1="147.749" x2="134.981" y2="61.3126" gradientUnits="userSpaceOnUse">
<stop stop-color="#115ED5"/>
<stop offset="1" stop-color="#3FD9E3"/>
</linearGradient>
<linearGradient id="paint8_linear" x1="38.1098" y1="83.818" x2="76.3297" y2="117.658" gradientUnits="userSpaceOnUse">
<stop stop-color="white"/>
<stop offset="1" stop-color="#F2F2F2"/>
</linearGradient>
<linearGradient id="paint9_linear" x1="38.5957" y1="84.2456" x2="75.8435" y2="117.225" gradientUnits="userSpaceOnUse">
<stop stop-color="#F2F2F2"/>
<stop offset="1" stop-color="white"/>
</linearGradient>
<linearGradient id="paint10_linear" x1="44.7305" y1="137.918" x2="118.196" y2="70.0451" gradientUnits="userSpaceOnUse">
<stop stop-color="#115ED5"/>
<stop offset="1" stop-color="#3FD9E3"/>
</linearGradient>
<linearGradient id="paint11_linear" x1="33.1525" y1="156.221" x2="136.588" y2="84.3684" gradientUnits="userSpaceOnUse">
<stop stop-color="#115ED5"/>
<stop offset="1" stop-color="#3FD9E3"/>
</linearGradient>
<linearGradient id="paint12_linear" x1="136.343" y1="66.8467" x2="161.984" y2="43.1582" gradientUnits="userSpaceOnUse">
<stop stop-color="#115ED5"/>
<stop offset="1" stop-color="#3FD9E3"/>
</linearGradient>
<linearGradient id="paint13_linear" x1="53.0108" y1="66.8462" x2="78.6516" y2="43.1582" gradientUnits="userSpaceOnUse">
<stop stop-color="#115ED5"/>
<stop offset="1" stop-color="#3FD9E3"/>
</linearGradient>
<linearGradient id="paint14_linear" x1="47.7784" y1="20.3648" x2="67.2928" y2="37.6428" gradientUnits="userSpaceOnUse">
<stop stop-color="white"/>
<stop offset="1" stop-color="#F2F2F2"/>
</linearGradient>
<linearGradient id="paint15_linear" x1="130.923" y1="20.3237" x2="150.284" y2="37.7602" gradientUnits="userSpaceOnUse">
<stop stop-color="white"/>
<stop offset="1" stop-color="#F2F2F2"/>
</linearGradient>
<linearGradient id="paint16_linear" x1="55.3939" y1="19.4453" x2="74.7212" y2="34.9087" gradientUnits="userSpaceOnUse">
<stop stop-color="#115ED5"/>
<stop offset="1" stop-color="#3FD9E3"/>
</linearGradient>
<linearGradient id="paint17_linear" x1="59.0497" y1="22.7218" x2="65.9078" y2="28.2088" gradientUnits="userSpaceOnUse">
<stop stop-color="#115ED5"/>
<stop offset="1" stop-color="#3FD9E3"/>
</linearGradient>
<linearGradient id="paint18_linear" x1="56.4224" y1="25.9467" x2="61.3371" y2="34.685" gradientUnits="userSpaceOnUse">
<stop stop-color="#115ED5"/>
<stop offset="1" stop-color="#3FD9E3"/>
</linearGradient>
<linearGradient id="paint19_linear" x1="55.1113" y1="24.5578" x2="55.3186" y2="25.8013" gradientUnits="userSpaceOnUse">
<stop stop-color="#115ED5"/>
<stop offset="1" stop-color="#3FD9E3"/>
</linearGradient>
<linearGradient id="paint20_linear" x1="55.1113" y1="23.9623" x2="55.3186" y2="25.2058" gradientUnits="userSpaceOnUse">
<stop stop-color="#115ED5"/>
<stop offset="1" stop-color="#3FD9E3"/>
</linearGradient>
<linearGradient id="paint21_linear" x1="54.6918" y1="25.1532" x2="55.0966" y2="26.2867" gradientUnits="userSpaceOnUse">
<stop stop-color="#115ED5"/>
<stop offset="1" stop-color="#3FD9E3"/>
</linearGradient>
<linearGradient id="paint22_linear" x1="138.54" y1="41.6558" x2="157.542" y2="33.2084" gradientUnits="userSpaceOnUse">
<stop stop-color="#115ED5"/>
<stop offset="1" stop-color="#3FD9E3"/>
</linearGradient>
<linearGradient id="paint23_linear" x1="138.838" y1="38.3935" x2="154.483" y2="30.5986" gradientUnits="userSpaceOnUse">
<stop stop-color="#115ED5"/>
<stop offset="1" stop-color="#3FD9E3"/>
</linearGradient>
<linearGradient id="paint24_linear" x1="140.244" y1="36.6951" x2="142.776" y2="34.6696" gradientUnits="userSpaceOnUse">
<stop stop-color="#115ED5"/>
<stop offset="1" stop-color="#3FD9E3"/>
</linearGradient>
<linearGradient id="paint25_linear" x1="138.502" y1="27.1766" x2="143.253" y2="22.8267" gradientUnits="userSpaceOnUse">
<stop stop-color="#115ED5"/>
<stop offset="1" stop-color="#3FD9E3"/>
</linearGradient>
<linearGradient id="paint26_linear" x1="141.825" y1="23.8729" x2="142.129" y2="22.5054" gradientUnits="userSpaceOnUse">
<stop stop-color="#115ED5"/>
<stop offset="1" stop-color="#3FD9E3"/>
</linearGradient>
<linearGradient id="paint27_linear" x1="141.825" y1="24.7122" x2="142.128" y2="23.3469" gradientUnits="userSpaceOnUse">
<stop stop-color="#115ED5"/>
<stop offset="1" stop-color="#3FD9E3"/>
</linearGradient>
<linearGradient id="paint28_linear" x1="141.825" y1="25.5495" x2="142.123" y2="24.1952" gradientUnits="userSpaceOnUse">
<stop stop-color="#115ED5"/>
<stop offset="1" stop-color="#3FD9E3"/>
</linearGradient>
<linearGradient id="paint29_linear" x1="141.825" y1="26.3895" x2="142.124" y2="25.0323" gradientUnits="userSpaceOnUse">
<stop stop-color="#115ED5"/>
<stop offset="1" stop-color="#3FD9E3"/>
</linearGradient>
<linearGradient id="paint30_linear" x1="139.179" y1="27.2277" x2="139.306" y2="25.8193" gradientUnits="userSpaceOnUse">
<stop stop-color="#115ED5"/>
<stop offset="1" stop-color="#3FD9E3"/>
</linearGradient>
<linearGradient id="paint31_linear" x1="139.179" y1="28.0665" x2="139.306" y2="26.655" gradientUnits="userSpaceOnUse">
<stop stop-color="#115ED5"/>
<stop offset="1" stop-color="#3FD9E3"/>
</linearGradient>
<linearGradient id="paint32_linear" x1="139.179" y1="28.9111" x2="139.309" y2="27.4864" gradientUnits="userSpaceOnUse">
<stop stop-color="#115ED5"/>
<stop offset="1" stop-color="#3FD9E3"/>
</linearGradient>
<linearGradient id="paint33_linear" x1="139.179" y1="29.7507" x2="139.308" y2="28.3272" gradientUnits="userSpaceOnUse">
<stop stop-color="#115ED5"/>
<stop offset="1" stop-color="#3FD9E3"/>
</linearGradient>
<linearGradient id="paint34_linear" x1="139.179" y1="30.588" x2="139.308" y2="29.1645" gradientUnits="userSpaceOnUse">
<stop stop-color="#115ED5"/>
<stop offset="1" stop-color="#3FD9E3"/>
</linearGradient>
<linearGradient id="paint35_linear" x1="139.179" y1="31.4276" x2="139.306" y2="30.0175" gradientUnits="userSpaceOnUse">
<stop stop-color="#115ED5"/>
<stop offset="1" stop-color="#3FD9E3"/>
</linearGradient>
<linearGradient id="paint36_linear" x1="139.179" y1="32.2649" x2="139.306" y2="30.8534" gradientUnits="userSpaceOnUse">
<stop stop-color="#115ED5"/>
<stop offset="1" stop-color="#3FD9E3"/>
</linearGradient>
<linearGradient id="paint37_linear" x1="139.179" y1="33.1043" x2="139.306" y2="31.6959" gradientUnits="userSpaceOnUse">
<stop stop-color="#115ED5"/>
<stop offset="1" stop-color="#3FD9E3"/>
</linearGradient>
<linearGradient id="paint38_linear" x1="139.179" y1="33.943" x2="139.306" y2="32.5329" gradientUnits="userSpaceOnUse">
<stop stop-color="#115ED5"/>
<stop offset="1" stop-color="#3FD9E3"/>
</linearGradient>
<clipPath id="clip0">
<rect width="12.697" height="12.7016" fill="white" transform="translate(51.9438 23.0941)"/>
</clipPath>
</defs>
</svg>
